<?xml version="1.0" standalone="no"?>
<!DOCTYPE svg PUBLIC "-//W3C//DTD SVG 1.1//EN" "http://www.w3.org/Graphics/SVG/1.1/DTD/svg11.dtd" >
<svg xmlns="http://www.w3.org/2000/svg" xmlns:xlink="http://www.w3.org/1999/xlink" version="1.1">
<metadata>
Created by FontForge 20150824 at Sun Jul  3 05:21:02 2016
 By Everything Fonts
----------------------------------------------------------------------------------
  Copyright (c) 2006 M. Hacen, All Rights Reserved / www.hacen.net
        Convert And Modified By Mojtaba Kia (c) 2007 - 2008
----------------------------------------------------------------------------------
</metadata>
<defs>
<font id="kaza" horiz-adv-x="0" >
  <font-face 
    font-family="kaza"
    font-weight="400"
    font-stretch="normal"
    units-per-em="2048"
    panose-1="0 0 4 0 0 0 0 0 0 0"
    ascent="1638"
    descent="-410"
    bbox="-211 -1243 2200 2140"
    underline-thickness="60"
    underline-position="-770"
    unicode-range="U+0020-FEFC"
  />
<missing-glyph horiz-adv-x="1024" 
d="M128 -155v1343h768v-1343h-768zM256 -27h512v1087h-512v-1087z" />
    <glyph glyph-name=".notdef" unicode="&#x652;&#x64d;" horiz-adv-x="1024" 
d="M128 -155v1343h768v-1343h-768zM256 -27h512v1087h-512v-1087z" />
    <glyph glyph-name="copyright" unicode="&#x652;&#x64b;" horiz-adv-x="1708" 
d="M44 -630h1608v-311h-1608v311zM828 -532q-13 -8 -27.5 -16.5t-30.5 -15.5t-31 -12t-30 -5q-19 0 -34 12.5t-27 40.5q-11 -8 -19 -13t-15.5 -9.5t-15.5 -7.5t-18 -6q-12 -4 -20 -4q-11 0 -20.5 7t-9.5 21q0 4 1.5 9t3.5 10q11 25 30 47.5t42.5 39.5t48 27t46.5 10
q17 0 30 -10t13 -32q0 -8 -6 -18.5t-17 -22.5q-13 -12 -22 -27.5t-9 -28.5q0 -9 5.5 -13t14.5 -4q13 0 30.5 6t34.5 14t31.5 15.5t20.5 11.5q5 23 20 42.5t34.5 33.5t39.5 22.5t35 8.5q9 0 12.5 -3.5t3.5 -7.5q0 -7 -6.5 -13.5t-18.5 -7.5q-12 -4 -27.5 -11.5t-29 -18.5
t-23 -25t-9.5 -32q0 -20 10 -28t26 -8t36.5 6t39.5 14.5t35.5 17t25.5 13.5q0 22 12 43.5t30 38.5t41 27t45 10q13 0 22 -3t13.5 -7t6.5 -9t2 -9q0 -16 -18 -32t-41 -30.5t-45.5 -25t-32.5 -15.5q10 -14 25 -20.5t35 -6.5q19 0 40 5t43 14.5t43 22t40 26.5q12 9 23.5 20
t24.5 20q2 2 7.5 5t12 6.5t13.5 5.5t12 2q10 0 10 -8q0 -3 -2.5 -10t-6.5 -14q-10 -28 -15.5 -46t-7.5 -29q0 -3 4 -3t12 4t18.5 10t21 13.5t19.5 14.5q3 2 14.5 10t26.5 17t29.5 16t23.5 7q7 0 7 -7q-1 -18 -1 -35q0 -8 0.5 -15.5t2.5 -13.5t6 -9.5t11 -3.5q10 0 19 3.5
t17 8.5t15.5 11t16.5 11l5 -12q-7 -6 -18 -16t-24 -19.5t-26.5 -16.5t-25.5 -7q-9 0 -15.5 3.5t-9.5 9t-4 12t-1 11.5q0 6 0.5 12t0.5 11q0 6 -2 12.5t-9 6.5q-6 0 -17 -6t-24 -15t-27.5 -19t-29.5 -19t-28.5 -15t-24.5 -6q-7 1 -13.5 4.5t-6.5 11.5q0 14 2.5 27.5
t11.5 38.5q0 1 -9.5 -6t-26.5 -17.5t-39.5 -22.5t-47.5 -23t-51 -18t-51 -7t-47 10t-31 29q-11 -5 -28.5 -14t-38.5 -17t-42.5 -14t-40.5 -6q-21 0 -37.5 10t-22.5 38zM311 -280q5 22 15.5 39t28.5 17q6 0 12 -2.5t6 -10.5q0 -6 -5 -15.5t-10 -17.5l-60 -118q65 3 129 22
t116 60q22 19 38 26.5t27 7.5q15 0 15 -13q0 -12 -14 -29.5t-45 -33.5q-20 -21 -38.5 -44t-33.5 -50.5t-24.5 -59.5t-12.5 -70q0 -12 -9 -12q-8 0 -11.5 8t-3.5 28q0 45 14 86.5t35 76.5q-47 -15 -95.5 -22t-99.5 -7l-49 -99q-9 -19 -24 -33t-35 -14q-15 0 -31 11.5
t-28.5 30t-21.5 42t-9 47.5q0 21 10.5 35t33.5 14q4 0 7.5 -0.5t7.5 -1.5q29 -3 57.5 -6t58.5 -3zM668 -915h56v197l196 -197h67v259h-56v-197l-193 197h-70v-259zM1041 -915h265v47h-204v66h184v47h-184v53h198v46h-259v-259zM1345 -656v-47h112v-212h55v212h113v47h-280z
M251 -413q-66 2 -132 13q-8 -6 -8 -22q0 -14 6 -32t16 -34.5t22 -28t25 -11.5q9 0 17.5 7.5t16.5 25.5zM717 -426q-3 1 -6 1h-6q-23 0 -44 -10.5t-40 -27t-34.5 -36t-26.5 -37.5q25 0 47.5 10t42 26t36.5 35.5t31 38.5zM530 -838v-77h78v77h-78zM1167 -406q-31 -3 -61 -23.5
t-48 -61.5q25 11 45.5 21.5t36 20.5t24 18.5t8.5 15.5q0 6 -5 9zM693 1863h1l2 -2v-209h1q96 68 234 68q176 0 345 -106q43 -27 97 -73q54 -52 70 -72q18 -20 18 -22l-1 -1q-1 0 -75 74q-59 53 -97 76q-47 31 -97 53q-127 56 -253 56q-148 0 -242 -75v-109l1 -420
q33 -45 85 -104q83 -89 165 -164l126 -117v0q16 4 30 4q34 0 88 -29q29 -13 44 -13q16 0 23 14v6q0 37 -149 177q-98 93 -158 147q-49 43 -130 124q-63 67 -76 91q-23 35 -23 63q0 43 48 58q9 2 17 2q22 0 65 -22q22 -10 38 -10h4q26 0 70 40l81 74q8 2 55 7v0q3 0 4 -2
q-1 -3 -24 -23l-107 -100q-37 -41 -37 -60q0 -3 3 -4h2q21 2 57 30q20 16 117 107q49 8 56 8q3 -1 3 -2v-2q-3 -4 -126 -116q-58 -54 -58 -86v-1h1q12 5 36 8q56 32 75 90q4 14 7 14q8 7 38 15l5 1h1q3 0 3 -3q-14 -36 -14 -65v-8l2 -20v0q38 6 60 25q1 0 35 34
q51 41 112 41q71 0 131 -59v0h-1q-38 33 -68 43q-27 9 -53 9h-1q-57 0 -98 -40q-23 -26 -23 -61q0 -26 13 -52l2 -1q9 6 9 16q0 8 -14 15q-8 7 -8 23q0 13 4 13q34 13 41 13h1q7 0 7 -16q0 -65 -69 -100q-6 -2 -9 -2q-14 0 -20 55v9q0 24 9 46h-1q-10 -7 -31 -14
q-20 -4 -27 -4v-1q9 -56 60 -128q26 -38 123 -144q90 -95 95 -102v-1q0 -6 -36 -6h-1q-17 0 -31 19l-166 178q-47 52 -104 109q-39 38 -80 38q-14 0 -50 -9l-4 -1h-4q-7 0 -9 10v2q2 25 25 59l1 1v1q-30 -4 -51 -9q-12 -4 -19 -4q-9 0 -10 11v0q0 20 23 58l5 6v0
q-18 -3 -34 -3q-42 0 -79 29q-12 7 -19 7q-13 0 -19 -17l-1 -8q0 -53 145 -190q43 -40 193 -178q55 -50 118 -113q86 -87 86 -130q0 -26 -28 -38q-9 -3 -21 -3q-30 0 -89 33q-39 18 -64 18h-3q-6 0 -22 -3v0q57 -58 74 -83q62 -78 62 -149q0 -58 -40 -86q-18 -9 -35 -9
q-37 0 -63 34q-3 5 -5 9v0q0 -9 -13 -47q-32 -82 -101 -119q-50 -27 -111 -27q-98 0 -159 76q-22 32 -26 79q0 2 1 2q-3 16 -5 43h-1v639q0 1 -19 30q-82 133 -82 255q0 138 90 243l11 12v186q0 10 7 17q26 38 31 43zM579 1385q0 -93 54 -183q10 -21 20 -35v421
q-74 -90 -74 -203zM1302 1571l1 -2v-2q-3 -10 -3 -22l1 -35q0 -33 -24 -33l-46 6q-4 0 -4 -7v-40q0 -21 -19 -28q-4 -2 -12 -2q-16 0 -16 4v3q3 11 3 17v0l-1 31q0 33 36 33l30 -1q7 1 7 7v41q0 18 16 26q18 4 31 4zM1096 1260q-25 -37 -61 -55v-1h5q35 0 70 -27v0v1
q-15 28 -15 64l2 18v0h-1zM1028 1171q4 0 4 -4q-4 -7 -4 -11v-4q0 -6 6 -46v-7q0 -18 -16 -24q-21 -5 -28 -5q-4 0 -5 3v1l2 9v1l-7 45v10q0 25 47 32h1zM1144 1051q4 0 4 -4q-3 -8 -3 -12v-1q0 -9 5 -46v-9q0 -23 -28 -27l-16 -1q-5 0 -5 3l2 8v4l-6 37q-1 6 -1 14v0
q0 21 25 29q16 5 23 5zM697 1018v-488v-83q0 -11 9 -51q9 -31 19 -45q27 -48 94 -72q31 -9 59 -9q80 0 137 66q18 24 28 48q14 37 14 46l3 18q-7 21 -18 92q-10 43 -20 67q-2 4 -2 8v3q0 12 22 36q2 2 3 2h1q7 0 23 -46q6 -15 13 -58q6 -61 12 -74q14 -38 52 -38q22 0 36 11
q8 8 8 22q0 59 -158 206q-19 18 -112 105q-47 43 -130 127q0 1 -25 27q-39 43 -68 80zM850 154q7 0 16 -21q1 -6 60 -60q62 -49 68 -78l2 -13q0 -28 -38 -57l-67 -55q-4 -5 -4 -9q0 -9 26 -30q57 -50 68 -63q16 -22 16 -47q0 -38 -50 -75l-5 -2q-10 0 -22 26q-19 24 -40 39
q-54 40 -61 64q-5 11 -5 24v3q0 39 65 96q26 25 26 32v2q0 9 -29 33l-60 55q-20 23 -20 48q0 24 25 54q19 27 27 33z" />
    <glyph glyph-name="uniE818" unicode="&#x651;&#x64b;" 
d="M519 1770l-377 -155v114l377 150v-109zM555 1436q0 -61 -35 -104q-42 -49 -108 -49q-69 0 -96 47q-41 -50 -122 -50q-57 0 -93 54q-27 40 -27 77q0 33 19 74q25 54 64 54q29 0 29 -30q0 -10 -2.5 -29.5t-2.5 -28.5q0 -42 33 -42q38 0 53 31q4 9 19 73q6 30 38 30t35 -33
q12 -106 53 -106q38 0 38 45q0 22 -10 56l79 64q36 -56 36 -133zM519 1983l-377 -155v114l377 149v-108z" />
    <glyph glyph-name="uniFC5E" unicode="&#x651;&#x64c;" arabic-form="isolated" 
d="M524 1535q0 -60 -35 -104q-42 -49 -108 -49q-70 0 -96 47q-43 -51 -122 -51q-52 0 -86 43t-34 89q0 34 19 74q25 55 64 55q29 0 29 -31q0 -11 -2.5 -30t-2.5 -29q0 -42 33 -42q38 0 53 31q5 12 19 73q6 31 38 31t35 -34q12 -106 53 -106q38 0 38 45q0 22 -10 56l79 65
q36 -59 36 -133zM535 1982q0 -51 -71 -130l47 -14l-50 -86q-68 12 -98 34q-118 -70 -218 -70q-43 0 -87 96q64 0 73 3q21 24 21 50q0 20 -16 20q-17 0 -62 -48l-18 84q49 56 101 56q19 0 37 -9q48 -22 48 -78q0 -42 -15 -65q46 4 70 23q-36 61 -36 86q0 56 75 110
q64 48 101 48q98 0 98 -110zM423 1970q0 23 -20 23q-34 0 -34 -37q0 -35 26 -56q28 18 28 70z" />
    <glyph glyph-name="uniFC5F" unicode="&#x651;&#x64d;" horiz-adv-x="1" arabic-form="isolated" 
d="M547 1964q0 -61 -35 -105q-42 -49 -108 -49q-70 0 -96 47q-43 -51 -122 -51q-52 0 -86 43.5t-34 88.5q0 34 19 74q25 55 64 55q29 0 29 -31q0 -11 -2.5 -30t-2.5 -29q0 -41 33 -41q38 0 53 30q5 12 19 74q6 30 38 30t35 -33q12 -107 53 -107q38 0 38 45q0 22 -10 57
l79 65q36 -59 36 -133zM492 1658l-378 -154v113l378 150v-109zM492 1474l-378 -154v113l378 150v-109z" />
    <glyph glyph-name="uniFC60" unicode="&#x651;&#x64e;" arabic-form="isolated" 
d="M546 1574q0 -60 -35 -104q-42 -49 -108 -49q-70 0 -96 47q-43 -51 -122 -51q-52 0 -86 43t-34 89q0 34 19 74q25 55 64 55q29 0 29 -31q0 -11 -2.5 -30t-2.5 -29q0 -42 33 -42q38 0 53 31q5 12 19 73q6 31 38 31t35 -34q12 -106 53 -106q38 0 38 45q0 22 -10 56l79 65
q36 -59 36 -133zM505 1877l-377 -155v114l377 149v-108z" />
    <glyph glyph-name="uniFC61" unicode="&#x651;&#x64f;" horiz-adv-x="1" arabic-form="isolated" 
d="M524 1575q0 -61 -35 -104q-42 -49 -108 -49q-69 0 -95 47q-42 -50 -123 -50q-57 0 -93 54q-27 40 -27 77q0 33 19 74q25 54 64 54q29 0 29 -30q0 -10 -2.5 -29.5t-2.5 -28.5q0 -42 33 -42q38 0 53 31q4 9 19 73q6 30 38 30t35 -33q12 -106 53 -106q38 0 38 45
q0 22 -10 56l79 64q36 -56 36 -133zM516 2028q0 -50 -71 -129q1 0 47 -12l-49 -88q-71 13 -99 34q-123 -70 -217 -70q-46 0 -86 97q117 2 151 7q63 8 86 28q-35 63 -35 87q0 55 75 109q64 49 100 49q47 0 76 -39q22 -32 22 -73zM404 2017q0 24 -19 24q-10 0 -23 -11.5
t-13 -25.5q0 -35 27 -56q28 18 28 69z" />
    <glyph glyph-name="uniFC62" unicode="&#x651;&#x650;" horiz-adv-x="1" arabic-form="isolated" 
d="M547 1842q0 -61 -35 -105q-42 -49 -108 -49q-70 0 -96 47q-43 -51 -122 -51q-52 0 -86 43.5t-34 88.5q0 34 19 74q25 55 64 55q29 0 29 -31q0 -11 -2.5 -30t-2.5 -29q0 -41 33 -41q38 0 53 30q5 12 19 74q6 30 38 30t35 -33q12 -107 53 -107q38 0 38 45q0 22 -10 57
l79 65q36 -59 36 -133zM492 1536l-378 -154v113l378 150v-109z" />
    <glyph glyph-name="uniFD3E" unicode="&#x652;&#x64e;" horiz-adv-x="1135" 
d="M1075 -612q0 -15 -24 -15q-76 0 -229 151q-201 196 -314 499q-209 3 -209 55q137 144 137 223q-62 0 -133.5 -73.5t-81.5 -73.5q-38 0 -55 163q-111 54 -111 95q0 46 105 108q11 156 49 156q153 -144 227 -144q-7 77 -78 146t-71 78q0 16 61 35q69 21 154 24
q72 217 195 388q95 133 204 219q87 69 123 69q20 0 20 -23q0 -10 -73 -91q-90 -101 -147 -208q-89 -164 -119 -364q100 -16 100 -45q-141 -142 -141 -221q72 0 215 147q18 0 37 -53t22 -111q106 -55 106 -100q0 -37 -100 -96q-8 -160 -55 -160l-68 65q-69 68 -153 76
q0 -71 73.5 -143t73.5 -84q0 -23 -108 -45q32 -163 130.5 -336.5t217.5 -276.5q20 -17 20 -34zM680 418q0 53 -38 91t-91 38q-54 0 -91.5 -38t-37.5 -91q0 -52 37.5 -88.5t91.5 -36.5q53 0 91 36.5t38 88.5z" />
    <glyph glyph-name="uniFDF2" unicode="&#xfedf;&#xfee0;&#xfeea;" horiz-adv-x="1844" arabic-form="isolated" 
d="M1469 1517v-180q0 -36 -14 -68t-38.5 -55.5t-57.5 -37.5t-71 -14q-35 0 -65 11.5t-55 31.5q-49 -43 -121 -43q-37 0 -69.5 14t-57 37.5t-39 55.5t-14.5 68v101l122 16v-93q0 -29 15.5 -50t35.5 -21h16q21 0 36 21t15 50v109l121 16v-125q0 -29 15.5 -50t36.5 -21h16
q21 0 36 21t15 50v140zM1291 1096v-723q0 -27 9.5 -48t25 -35t35 -22t39.5 -8q21 0 40.5 8t34.5 22t24.5 35t9.5 48v817h261v-821q0 -76 -29.5 -143t-80 -117t-117.5 -79.5t-143 -29.5q-65 -1 -127 23t-112 66q-51 -42 -110 -64t-124 -25q-75 -3 -143 27t-119 81.5
t-81 119.5t-30 141v172q0 30 -9.5 52.5t-25 36.5t-35 21t-39.5 6q-21 -1 -41 -9t-35.5 -22.5t-25 -36t-9.5 -48.5v-168q0 -27 9.5 -48t25 -35t35.5 -21.5t41 -8.5h48l-85 -258q-71 9 -132 41t-106 81t-71 112t-26 133v176q0 76 29.5 143.5t80 117.5t118 79.5t144.5 29.5
q76 0 143 -29.5t117.5 -79.5t80 -117.5t29.5 -143.5v-172q0 -27 9 -47.5t24 -34.5t34 -22t40 -9q20 1 39.5 8.5t35 21.5t25 35t9.5 48v619z" />
    <glyph glyph-name="uniFEF5" unicode="&#xfedf;&#xfe82;" horiz-adv-x="989" arabic-form="isolated" 
d="M500 158q45 -1 73 14.5t28 47.5q0 17 -7.5 39.5t-24.5 48.5q-35 -8 -63 -19t-50.5 -28.5t-38.5 -42.5t-26 -60h109zM7 1212q-1 83 58 159q37 43 99 43q55 0 131 -32q53 -22 96 -22q74 0 124 69l27 -12q-33 -193 -158 -193q-21 0 -44 4.5t-48 15.5q-73 29 -122 29
q-83 0 -134 -70zM125 -102v243q1 72 23.5 132.5t62 109.5t92.5 85.5t116 59.5q-89 132 -181.5 267t-182.5 266l216 147l373 -547q10 16 13.5 35t3.5 42v452h262l2 -181q0 -11 0.5 -23.5t0.5 -23.5q0 -17 0.5 -32.5t0.5 -32.5q0 -78 -8 -154t-35 -151q-16 -43 -42 -79.5
t-54 -69.5q32 -67 46.5 -126t14.5 -111q0 -73 -27 -130.5t-78.5 -97t-126 -60.5t-168.5 -21q-8 0 -15 0.5t-14 0.5h-295z" />
    <glyph glyph-name="uniFEF6" unicode="&#xfee0;&#xfe82;" horiz-adv-x="1053" arabic-form="final" 
d="M9 1212q-1 83 59 159q34 43 97 43q56 0 132 -32q51 -22 97 -22q36 0 67.5 17t55.5 52l28 -12q-35 -193 -160 -193q-20 0 -43 4.5t-48 15.5q-72 29 -123 29q-83 0 -134 -70zM926 1190v-815q3 -27 15 -48t29.5 -36t39 -23t44.5 -8v-260q-48 0 -93 10.5t-85 30t-74 47
t-59 60.5q-62 -50 -133 -80.5t-141.5 -47t-134.5 -22t-111 -5.5q-19 0 -37 1.5t-32.5 3t-24.5 3t-13 2.5l72 262q33 0 71.5 1t78.5 5.5t79.5 12.5t74.5 20q-20 60 -53 122.5t-73.5 126.5t-86.5 128t-92 127q-38 51 -79 108.5t-73 105.5l210 179q23 -32 55.5 -75.5
t64.5 -83.5q46 -60 95 -125.5t91 -134t73 -138t41 -137.5v8v675h261z" />
    <glyph glyph-name="uniFEF7" unicode="&#xfedf;&#xfe84;" horiz-adv-x="989" arabic-form="isolated" 
d="M501 158q44 -1 72.5 14.5t28.5 47.5q0 17 -8 39.5t-25 48.5q-35 -8 -63 -19t-50.5 -28.5t-38.5 -42.5t-26 -60h110zM371 1256q-39 0 -75.5 -0.5t-73 -2.5t-74 -7t-78.5 -15l-23 115l73 19q-19 38 -19 76q0 33 14 61.5t37.5 49.5t53 33t61.5 12q23 0 49 -9t52 -29
l-30 -110q-17 6 -33.5 11t-27.5 5q-12 0 -23 -4t-16 -15q-6 -9 -6 -16q0 -14 12 -29q13 -16 32.5 -20.5t41.5 -4.5q8 0 16.5 0.5t16.5 0.5q7 1 21 1h28zM126 -102v243q1 72 23.5 132.5t61.5 109.5t92.5 85.5t115.5 59.5q-89 132 -181.5 267t-182.5 266l216 147l374 -547
q17 30 17 77v452h261l2 -181q0 -11 0.5 -23.5t0.5 -23.5q0 -17 0.5 -32.5t0.5 -32.5q0 -78 -8 -154t-34 -151q-17 -43 -43 -79.5t-53 -69.5q32 -67 46.5 -126t14.5 -111q0 -73 -27 -130.5t-79 -97t-126.5 -60.5t-168.5 -21q-7 0 -14 0.5t-15 0.5h-294z" />
    <glyph glyph-name="uniFEF8" unicode="&#xfee0;&#xfe84;" horiz-adv-x="1053" arabic-form="final" 
d="M373 1256q-39 0 -75.5 -0.5t-73 -2.5t-74 -7t-78.5 -15l-23 115l73 19q-19 38 -19 76q0 33 14 61.5t37 49.5t53 33t62 12q23 0 49 -9t52 -29l-31 -110q-17 6 -34 11t-27 5q-13 0 -23.5 -4t-15.5 -15q-5 -10 -5 -16q0 -15 11 -29q13 -16 33 -20.5t41 -4.5q9 0 17.5 0.5
t16.5 0.5h-1q8 1 22 1h28zM926 1190v-815q4 -27 16 -48t29.5 -36t39 -23t44.5 -8v-260q-48 0 -93 10.5t-85.5 30t-74.5 47t-59 60.5q-61 -50 -132 -80.5t-141.5 -47t-134.5 -22t-111 -5.5q-39 0 -70.5 4t-37.5 6l73 262q33 0 71 1t78 5.5t79.5 12.5t74.5 20
q-20 60 -52.5 122.5t-73 126.5t-86.5 128t-92 127q-38 51 -79.5 108.5t-73.5 105.5l210 179q23 -32 55.5 -75.5t64.5 -83.5q46 -60 95 -125.5t91.5 -134t73.5 -138t40 -137.5v8v675h261z" />
    <glyph glyph-name="uniFEF9" unicode="&#xfedf;&#xfe88;" horiz-adv-x="989" arabic-form="isolated" 
d="M501 158q44 -1 72.5 14.5t28.5 47.5q0 17 -8 39.5t-25 48.5q-35 -8 -63 -19t-50.5 -28.5t-38.5 -42.5t-26 -60h110zM376 -493h-76t-73.5 -2.5t-74 -7.5t-78.5 -14l-23 114l73 19q-19 38 -19 76q0 33 14 61.5t37.5 49.5t53 32.5t61.5 11.5q24 0 49.5 -8t51.5 -28l-30 -111
q-17 6 -34 11t-27 5q-13 0 -23.5 -4t-16.5 -15q-4 -8 -4 -17q0 -7 2.5 -14.5t8.5 -14.5q12 -15 32 -20t42 -5q8 0 17 0.5t17 1.5h-1q8 1 22 1h28zM126 -102v243q1 72 23.5 132.5t61.5 109.5t92.5 85.5t115.5 59.5q-89 132 -181 267t-183 266l216 147l374 -547q17 30 17 77
v452h261l2 -181q0 -11 0.5 -23.5t0.5 -23.5q0 -17 0.5 -32.5t0.5 -32.5q0 -78 -7.5 -154t-34.5 -151q-17 -43 -43 -79.5t-53 -69.5q32 -67 46.5 -126t14.5 -111q0 -73 -27 -130.5t-79 -97t-126.5 -60.5t-168.5 -21q-7 0 -14 0.5t-15 0.5h-294z" />
    <glyph glyph-name="uniFEFA" unicode="&#xfee0;&#xfe88;" horiz-adv-x="1053" arabic-form="final" 
d="M378 -399h-76t-73.5 -2.5t-74 -7.5t-78.5 -14l-24 113l74 20q-11 20 -15 39.5t-4 36.5q0 33 14 61.5t37.5 49.5t53 33t61.5 12q23 0 49 -8.5t52 -28.5l-30 -111q-17 7 -34 11.5t-28 4.5q-28 0 -39 -19q-5 -10 -5 -17q0 -14 12 -29t31.5 -19.5t41.5 -4.5q9 0 17.5 0.5
t17.5 0.5h-1q6 1 20 1h29zM926 1190v-815q4 -27 16 -48t29.5 -36t39 -23t44.5 -8v-260q-48 0 -93 10.5t-85.5 30t-74.5 47t-59 60.5q-61 -50 -132 -80.5t-141.5 -47t-134.5 -22t-111 -5.5q-39 0 -70.5 4t-37.5 6l73 262q33 0 71 1t78 5.5t79.5 12.5t74.5 20
q-20 60 -52.5 122.5t-73 126.5t-86.5 128t-92 127q-38 51 -79.5 108.5t-73.5 105.5l210 179q23 -32 55.5 -75.5t64.5 -83.5q46 -60 95 -125.5t91.5 -134t73.5 -138t40 -137.5v8v675h261z" />
    <glyph glyph-name="uniFEFB" unicode="&#xfedf;&#xfe8e;" horiz-adv-x="989" arabic-form="isolated" 
d="M501 158q44 -1 72.5 14.5t28.5 47.5q0 17 -8 39.5t-25 48.5q-35 -8 -63 -19t-50.5 -28.5t-38.5 -42.5t-26 -60h110zM126 -102v243q1 72 23.5 132.5t61.5 109.5t92.5 85.5t115.5 59.5q-89 132 -181 267t-182 266l215 147l374 -547q17 30 17 77v452h262l1 -181
q0 -11 0.5 -23.5t0.5 -23.5q0 -17 0.5 -32.5t0.5 -32.5q0 -78 -7.5 -154t-34.5 -151q-16 -43 -42.5 -79.5t-53.5 -69.5q32 -67 46.5 -126t14.5 -111q0 -73 -27 -130.5t-79 -97t-126.5 -60.5t-168.5 -21q-7 0 -14 0.5t-15 0.5h-294z" />
    <glyph glyph-name="uniFEFC" unicode="&#xfee0;&#xfe8e;" horiz-adv-x="1053" arabic-form="final" 
d="M926 1190v-815q4 -27 16 -48t29.5 -36t39 -23t44.5 -8v-260q-48 0 -93 10.5t-85.5 30t-74.5 47t-59 60.5q-61 -50 -132 -80.5t-141.5 -47t-134.5 -22t-111 -5.5q-39 0 -70.5 4t-37.5 6l73 262q33 0 71 1t78 5.5t79.5 12.5t74.5 20q-20 60 -52.5 122.5t-73 126.5
t-86.5 128t-92 127q-38 51 -79.5 108.5t-73.5 105.5l210 179q23 -32 55.5 -75.5t64.5 -83.5q46 -60 95 -125.5t91.5 -134t73.5 -138t40 -137.5v8v675h261z" />
    <glyph glyph-name="uni0622" unicode="&#x622;" horiz-adv-x="449" arabic-form="isolated" 
d="M-18 1212q-2 85 58 159q35 43 98 43q27 0 60 -7.5t71 -24.5q51 -22 97 -22q74 0 125 69l26 -12q-33 -193 -159 -193q-43 0 -92 20q-72 29 -122 29q-83 0 -134 -70zM357 1190v-814q0 -50 -3 -103t-14 -104.5t-31.5 -99t-54.5 -84.5l-173 99q16 68 16 162v41v903h260z" />
    <glyph glyph-name="uni0623" unicode="&#x623;" horiz-adv-x="449" arabic-form="isolated" 
d="M375 1256q-39 0 -75.5 -0.5t-73 -2.5t-74.5 -7t-79 -15l-23 115l74 19q-11 20 -15.5 39t-4.5 37q0 33 14 61.5t37.5 49.5t53.5 33t62 12q23 0 48.5 -9t51.5 -29l-30 -110q-17 6 -33.5 11t-27.5 5q-12 0 -23 -4t-16 -15q-4 -8 -4 -16q0 -16 10 -29q13 -16 32.5 -20.5
t41.5 -4.5q8 0 17.5 0.5t17.5 0.5h-1q7 1 21 1h28zM357 1190v-814q0 -50 -3.5 -103t-14 -104.5t-31.5 -99t-55 -84.5l-173 99q9 35 13 74.5t4 87.5v20q0 10 -1 21v903h261z" />
    <glyph glyph-name="uni0624" unicode="&#x624;" horiz-adv-x="862" arabic-form="isolated" 
d="M322 372q0 -27 9.5 -48t25 -35.5t35 -22t40.5 -8.5q20 -2 39.5 4.5t35 21t25 36.5t9.5 52v169q0 30 -9.5 52.5t-25 36.5t-35 21t-39.5 6q-21 -1 -40.5 -9t-35 -22.5t-25 -36t-9.5 -48.5v-169zM599 995q-51 0 -99.5 -0.5t-96.5 -3.5t-97 -9.5t-102 -18.5l-28 143l99 26
q-29 53 -29 105q0 43 18.5 80t49.5 64.5t70 43t81 15.5q31 0 64 -11t65 -35l-41 -139q-20 8 -40.5 14t-36.5 6q-18 0 -33 -6.5t-25 -22.5q-6 -12 -6 -24q0 -22 16 -41q19 -23 47 -30.5t58 -7.5q12 0 22.5 0.5t21.5 1.5q6 0 14 0.5t16.5 1t15.5 0.5h12zM116 -73
q46 -19 92 -29.5t86 -10.5q34 0 67 7t60.5 22t49 39t33.5 57q-24 -6 -47.5 -9.5t-46.5 -3.5q-70 0 -133.5 26.5t-111.5 73t-76.5 110t-28.5 138.5v198q0 76 29.5 143.5t80 117.5t118 79.5t143.5 29.5t143.5 -29.5t118 -79.5t80 -117.5t29.5 -143.5v-179q0 -94 -8 -184.5
t-28.5 -171.5t-55.5 -149t-89.5 -117.5t-131 -77t-178.5 -27.5q-85 0 -195 22v266z" />
    <glyph glyph-name="uni0625" unicode="&#x625;" horiz-adv-x="461" arabic-form="isolated" 
d="M338 -399h-76q-36 0 -73 -2.5t-74.5 -7.5t-78.5 -14l-24 113l74 20q-10 20 -14.5 39.5t-4.5 36.5q0 33 14 61.5t37.5 49.5t53.5 33t62 12q23 0 48.5 -8.5t51.5 -28.5l-31 -111q-17 7 -33.5 11.5t-27.5 4.5q-12 0 -22.5 -4t-15.5 -15q-6 -9 -6 -17t3.5 -14.5t8.5 -14.5
q13 -15 32.5 -19.5t40.5 -4.5q9 0 17.5 0.5t17.5 0.5q5 1 19 1h28zM361 1190v-814q0 -50 -3 -103t-13.5 -104.5t-31 -99t-55.5 -84.5l-174 99q18 70 18 162v20q0 10 -1 21v903h260z" />
    <glyph glyph-name="uni0626" unicode="&#x626;" horiz-adv-x="1346" arabic-form="isolated" 
d="M399 612q-52 0 -100 -0.5t-96 -3.5t-97 -9.5t-102 -18.5l-29 142l99 26q-14 26 -21 53.5t-7 52.5q0 43 18.5 80t49 64.5t70 43t80.5 15.5q31 0 64 -11.5t65 -34.5l-40 -140q-20 8 -40.5 14t-36.5 6q-19 0 -33.5 -6t-23.5 -22q-7 -11 -7 -25q0 -22 16 -41q19 -23 47 -29.5
t58 -6.5h22t22 1t30.5 1.5t26.5 0.5zM477 0q-97 2 -163.5 36.5t-108 92.5t-59.5 135.5t-18 165.5l233 92q0 -42 8 -87.5t29 -84t56 -64t89 -26.5h364q54 0 80 24.5t26 55.5q0 19 -8 37t-23 32t-37.5 22.5t-51.5 8.5l-122 -2q-59 -2 -104.5 9t-77.5 32.5t-51.5 51t-25.5 64.5
q-6 27 -6 54q0 73 33.5 135t85 114.5t112.5 96.5t116 81q11 5 25.5 16t24.5 17l160 -208q-81 -39 -152.5 -87t-127.5 -116h63q53 0 105 -5t103 -22h-1q58 -20 100.5 -52t70 -72.5t40.5 -87.5t13 -95q0 -68 -25 -133t-72 -116.5t-115.5 -83t-155.5 -31.5h-432z" />
    <glyph glyph-name="uni0627" unicode="&#x627;" horiz-adv-x="472" arabic-form="isolated" 
d="M362 1190v-814q0 -50 -3 -103t-14 -104.5t-31.5 -99t-54.5 -84.5l-173 99q8 35 12.5 74.5t4.5 87.5v20q0 10 -1 21v903h260z" />
    <glyph glyph-name="uni0628" unicode="&#x628;" horiz-adv-x="1332" arabic-form="isolated" 
d="M666 -116l187 -187l-187 -185l-185 185zM1094 768q48 -35 82.5 -82.5t55.5 -98.5q17 -42 24.5 -83t7.5 -81q0 -106 -53.5 -194.5t-153.5 -147.5q-82 -48 -183 -72t-206 -24q-113 0 -221 27.5t-192.5 83t-136 138t-51.5 193.5v51h259v-47q0 -48 29.5 -84.5t77.5 -61
t109.5 -37t125.5 -12.5q54 0 106.5 9t97.5 27.5t78.5 46t49.5 62.5q5 28 5 47q0 48 -23 91t-62 90z" />
    <glyph glyph-name="uni0629" unicode="&#x629;" horiz-adv-x="862" arabic-form="isolated" 
d="M322 372q0 -27 9.5 -48t25 -35.5t35 -22.5t40.5 -8q20 -2 39.5 4.5t35 21t25 36.5t9.5 52v169q0 30 -9.5 52.5t-25 36.5t-35 21t-39.5 6q-21 -1 -40.5 -9t-35 -22.5t-25 -36t-9.5 -48.5v-169zM802 369q0 -76 -29.5 -143.5t-80 -118t-118 -80t-143.5 -29.5t-143.5 29.5
t-118 79.5t-80 117.5t-29.5 144.5v176q0 76 29.5 143.5t80 117.5t118 79.5t143.5 29.5t143.5 -29.5t118 -79.5t80 -117.5t29.5 -143.5v-176z" />
    <glyph glyph-name="uni062A" unicode="&#x62a;" horiz-adv-x="1332" arabic-form="isolated" 
d="M674 960l136 136l186 -185l-186 -187l-135 137q-32 -32 -69 -68.5t-68 -68.5l-187 187l187 185zM1094 768q48 -35 82.5 -82.5t55.5 -98.5q17 -42 24.5 -83t7.5 -81q0 -106 -53.5 -194.5t-153.5 -147.5q-82 -48 -183 -72t-206 -24q-113 0 -221 27.5t-192.5 83t-136 138
t-51.5 193.5v51h259v-47q0 -48 29.5 -84.5t77.5 -61t109.5 -37t125.5 -12.5q54 0 106.5 9t97.5 27.5t78.5 46t49.5 62.5q5 28 5 47q0 48 -23 91t-62 90z" />
    <glyph glyph-name="uni062B" unicode="&#x62b;" horiz-adv-x="1332" arabic-form="isolated" 
d="M863 1205l-186 -184l-186 184l186 187zM674 960l136 136l186 -185l-186 -187l-135 137q-32 -32 -69 -68.5t-68 -68.5l-187 187l187 185zM1094 768q48 -35 82.5 -82.5t55.5 -98.5q17 -42 24.5 -83t7.5 -81q0 -106 -53.5 -194.5t-153.5 -147.5q-82 -48 -183 -72t-206 -24
q-113 0 -221 27.5t-192.5 83t-136 138t-51.5 193.5v51h259v-47q0 -48 29.5 -84.5t77.5 -61t109.5 -37t125.5 -12.5q54 0 106.5 9t97.5 27.5t78.5 46t49.5 62.5q5 28 5 47q0 48 -23 91t-62 90z" />
    <glyph glyph-name="uni062C" unicode="&#x62c;" horiz-adv-x="992" arabic-form="isolated" 
d="M590 212l187 -187l-187 -185l-185 185zM829 283q-17 2 -39.5 2.5t-41.5 0.5q-67 0 -138 -13t-131 -43t-102.5 -78.5t-52.5 -119.5q-1 -7 -1.5 -14.5t-0.5 -12.5q0 -35 11 -67.5t34 -60.5t58.5 -48.5t84.5 -29.5h-1q14 -2 27 -3t27 -1q55 0 110.5 12t104.5 24
q11 4 31.5 9.5t31.5 7.5l39 -243q-88 -26 -178.5 -44.5t-176.5 -18.5q-57 0 -111 9.5t-104 31.5t-94.5 59t-81.5 91q-34 50 -52 117.5t-18 143.5q0 19 0.5 39t3.5 39q13 93 52 167.5t99 131t137 95t165 61.5q-39 30 -83 47t-93 17q-71 0 -181 -53l-6 249q54 43 104.5 62
t99.5 19q51 0 101 -16.5t98.5 -42.5t96.5 -59.5t95 -67.5q41 -31 84 -61t96 -59z" />
    <glyph glyph-name="uni062D" unicode="&#x62d;" horiz-adv-x="992" arabic-form="isolated" 
d="M829 283q-17 2 -39.5 2.5t-41.5 0.5q-67 0 -138 -13t-131 -43t-102.5 -78.5t-52.5 -119.5q-1 -7 -1.5 -14.5t-0.5 -12.5q0 -35 11 -67.5t34 -60.5t58.5 -48.5t84.5 -29.5h-1q14 -2 27 -3t27 -1q55 0 110.5 12t104.5 24q11 4 31.5 9.5t31.5 7.5l39 -243
q-88 -26 -178.5 -44.5t-176.5 -18.5q-57 0 -111 9.5t-104 31.5t-94.5 59t-81.5 91q-34 50 -52 117.5t-18 143.5q0 19 0.5 39t3.5 39q13 93 52 167.5t99 131t137 95t165 61.5q-39 30 -83 47t-93 17q-71 0 -181 -53l-6 249q54 43 104.5 62t99.5 19q51 0 101 -16.5t98.5 -42.5
t96.5 -59.5t95 -67.5q41 -31 84 -61t96 -59z" />
    <glyph glyph-name="uni062E" unicode="&#x62e;" horiz-adv-x="992" arabic-form="isolated" 
d="M336 1270l187 -186l-187 -184l-185 184zM829 283q-17 2 -39.5 2.5t-41.5 0.5q-67 0 -138 -13t-131 -43t-102.5 -78.5t-52.5 -119.5q-1 -7 -1.5 -14.5t-0.5 -12.5q0 -35 11 -67.5t34 -60.5t58.5 -48.5t84.5 -29.5h-1q14 -2 27 -3t27 -1q55 0 110.5 12t104.5 24
q11 4 31.5 9.5t31.5 7.5l39 -243q-88 -26 -178.5 -44.5t-176.5 -18.5q-57 0 -111 9.5t-104 31.5t-94.5 59t-81.5 91q-34 50 -52 117.5t-18 143.5q0 19 0.5 39t3.5 39q13 93 52 167.5t99 131t137 95t165 61.5q-39 30 -83 47t-93 17q-71 0 -181 -53l-6 249q54 43 104.5 62
t99.5 19q51 0 101 -16.5t98.5 -42.5t96.5 -59.5t95 -67.5q41 -31 84 -61t96 -59z" />
    <glyph glyph-name="uni062F" unicode="&#x62f;" horiz-adv-x="763" arabic-form="isolated" 
d="M376 856q56 -45 113.5 -101t104.5 -118.5t77 -130t32 -136.5q1 -76 -28 -143.5t-79.5 -117.5t-118.5 -79.5t-144 -29.5h-274v260h270q30 0 52 9.5t36.5 24.5t21 34.5t6.5 40.5q-2 30 -25 65t-58.5 73t-79.5 76t-87 74z" />
    <glyph glyph-name="uni0630" unicode="&#x630;" horiz-adv-x="763" arabic-form="isolated" 
d="M231 1215l187 -186l-187 -186l-186 186zM376 856q56 -45 113.5 -101t104.5 -118.5t77 -130t32 -136.5q1 -76 -28 -143.5t-80 -117.5t-119 -79.5t-144 -29.5h-273v260h270q30 0 52 9.5t36.5 24.5t21 34.5t6.5 40.5q-2 30 -25 65t-58.5 73t-79.5 76t-87 74z" />
    <glyph glyph-name="uni0631" unicode="&#x631;" horiz-adv-x="813" arabic-form="isolated" 
d="M550 769q52 -44 90 -99.5t63 -119t37.5 -132.5t12.5 -139q0 -80 -15 -160t-43.5 -152.5t-71 -135t-97.5 -109t-123 -72.5t-147 -26q-86 0 -196 40v262q98 -38 163 -38q69 0 119.5 31.5t84 84t49.5 120.5t16 140q0 95 -29 186.5t-86 158.5z" />
    <glyph glyph-name="uni0632" unicode="&#x632;" horiz-adv-x="813" arabic-form="isolated" 
d="M293 1103l187 -187l-187 -185l-185 185zM550 769q52 -44 90 -99.5t63 -119t37.5 -132.5t12.5 -139q0 -80 -15 -160t-43.5 -152.5t-71 -135t-97.5 -109t-123 -72.5t-147 -26q-86 0 -196 40v262q98 -38 163 -38q69 0 119.5 31.5t84 84t49.5 120.5t16 140q0 95 -29 186.5
t-86 158.5z" />
    <glyph glyph-name="uni0633" unicode="&#x633;" horiz-adv-x="2019" arabic-form="isolated" 
d="M985 761v-501h111q21 0 41 7.5t35.5 22t25 35.5t9.5 48v388h261v-388q0 -27 9 -47.5t24 -34.5t34 -22t40 -9q20 1 39.5 8.5t34.5 21.5t24.5 35t9.5 48v388h261v-392q0 -76 -29 -143t-79 -116.5t-116.5 -79t-142.5 -30.5q-70 0 -130.5 23t-109.5 65q-48 -41 -110 -64.5
t-131 -23.5h-119q-16 -80 -59 -144.5t-104 -110.5t-134 -70.5t-149 -24.5q-85 0 -167 31t-146 88t-103 136t-39 175v375h261v-370q0 -44 16.5 -77t43.5 -55t62 -33.5t72 -11.5q36 0 71 10.5t62 32.5t44 55.5t17 78.5v676h260z" />
    <glyph glyph-name="uni0634" unicode="&#x634;" horiz-adv-x="2019" arabic-form="isolated" 
d="M1339 1515l187 -186l-187 -186l-185 186zM1201 1219l135 -137l137 137l186 -185l-186 -186l-136 135l-68.5 -68.5t-67.5 -66.5l-187 186zM985 761v-501h111q21 0 41 7.5t35.5 22t25 35.5t9.5 48v388h261v-388q0 -27 9 -47.5t24 -34.5t34 -22t40 -9q20 1 39.5 8.5
t34.5 21.5t24.5 35t9.5 48v388h261v-392q0 -76 -29 -143t-79 -116.5t-116.5 -79t-142.5 -30.5q-70 0 -130.5 23t-109.5 65q-48 -41 -110 -64.5t-131 -23.5h-119q-16 -80 -59 -144.5t-104 -110.5t-134 -70.5t-149 -24.5q-85 0 -167 31t-146 88t-103 136t-39 175v375h261v-370
q0 -44 16.5 -77t43.5 -55t62 -33.5t72 -11.5q36 0 71 10.5t62 32.5t44 55.5t17 78.5v676h260z" />
    <glyph glyph-name="uni0635" unicode="&#x635;" horiz-adv-x="2159" arabic-form="isolated" 
d="M1707 260q30 0 52 9.5t36.5 24.5t21 34.5t6.5 40.5q-1 21 -9 40.5t-22.5 35t-35.5 25.5t-48 13q-53 3 -109.5 -17t-109.5 -53t-101 -73.5t-84 -79.5h403zM987 288q45 53 96.5 108t108.5 107t118 98t125 80t130.5 54t133.5 20q42 0 84.5 -8t86.5 -26v1q49 -21 88.5 -58.5
t66.5 -85.5t41.5 -102t14.5 -106q0 -76 -29.5 -143.5t-80 -117.5t-117.5 -79.5t-143 -29.5h-732q-15 -80 -58.5 -144.5t-104.5 -110.5t-134.5 -70.5t-149.5 -24.5q-85 0 -167 31t-146 88t-103 136t-39 175v345h261v-340q0 -44 17 -77t44 -55t62 -33.5t71 -11.5q37 0 72 10.5
t62 32.5t43.5 55.5t16.5 78.5v335l261 104v-236z" />
    <glyph glyph-name="uni0636" unicode="&#x636;" horiz-adv-x="2159" arabic-form="isolated" 
d="M1258 1099l187 -187l-187 -185l-185 185zM1707 260q30 0 52 9.5t36.5 24.5t21 34.5t6.5 40.5q-1 21 -9 40.5t-22.5 35t-35.5 25.5t-48 13q-53 3 -109.5 -17t-109.5 -53t-101 -73.5t-84 -79.5h403zM987 290q45 54 95.5 109.5t106.5 107.5t116 97.5t124 79t131 53t136 19.5
q42 0 86 -8.5t88 -26.5q48 -22 87 -60t66.5 -85.5t42.5 -100.5t15 -105q0 -76 -29.5 -143.5t-80 -117.5t-117.5 -79.5t-143 -29.5h-732q-15 -80 -58.5 -144.5t-104.5 -110.5t-134.5 -70.5t-149.5 -24.5q-85 0 -167 31t-146 88t-103 136t-39 175v345h261v-340q0 -44 17 -77
t44 -55t62 -33.5t71 -11.5q37 0 72 10.5t62 32.5t43.5 55.5t16.5 78.5v335l261 104v-234z" />
    <glyph glyph-name="uni0637" unicode="&#x637;" horiz-adv-x="1439" arabic-form="isolated" 
d="M997 260q30 0 52 9.5t36.5 24.5t21 34.5t6.5 40.5q-2 42 -31.5 75.5t-83.5 38.5q-53 3 -109.5 -17t-110 -53t-101.5 -73.5t-85 -79.5h405zM369 -2q-64 5 -139.5 30.5t-164.5 73.5l79 254q31 -24 58.5 -43t52.5 -30v907h260v-700q48 49 103 95.5t116.5 83t129 58.5
t140.5 22t145 -25q51 -18 91.5 -56t69.5 -87t44.5 -104t15.5 -107q0 -75 -29.5 -141.5t-80 -117t-117.5 -80.5t-142 -31z" />
    <glyph glyph-name="uni0638" unicode="&#x638;" horiz-adv-x="1439" arabic-form="isolated" 
d="M762 1151l187 -186l-187 -184l-185 184zM997 260q30 0 52 9.5t36.5 24.5t21 34.5t6.5 40.5q-2 42 -31.5 75.5t-83.5 38.5q-53 3 -109.5 -17t-110 -53t-101.5 -73.5t-85 -79.5h405zM369 -2q-64 5 -139.5 30.5t-164.5 73.5l79 254q31 -24 58.5 -43t52.5 -30v907h260v-700
q48 49 103 95.5t116.5 83t129 58.5t140.5 22t145 -25q51 -18 91.5 -56t69.5 -87t44.5 -104t15.5 -107q0 -75 -29.5 -141.5t-80 -117t-117.5 -80.5t-142 -31z" />
    <glyph glyph-name="uni0639" unicode="&#x639;" horiz-adv-x="925" arabic-form="isolated" 
d="M779 212q-16 -4 -40.5 -9t-44.5 -10q-56 -11 -120 -25.5t-119.5 -39t-92 -62t-36.5 -94.5q0 -45 14 -77t38.5 -53.5t57 -33.5t68.5 -16h-1q8 -1 16 -1h18q50 0 105.5 12t104.5 24q16 5 40 11.5t39 9.5l41 -243q-88 -26 -177 -44.5t-172 -18.5q-55 0 -107 9.5t-100.5 31.5
t-92.5 59t-81 91q-35 54 -55.5 114t-20.5 125q0 85 40.5 172t127.5 162q-42 66 -61 130t-19 125q0 100 47 182t132 134q42 26 88 39t93 13q52 0 105 -16.5t103 -45.5l-31 -260q-32 29 -66.5 42t-64.5 13q-27 0 -53 -7t-46 -20.5t-32.5 -33t-12.5 -45.5q0 -7 0.5 -13.5
t1.5 -11.5q5 -23 18.5 -50.5t27.5 -53.5q3 -4 4.5 -6.5t4.5 -8.5q78 22 173 44t185 38z" />
    <glyph glyph-name="uni063A" unicode="&#x63a;" horiz-adv-x="925" arabic-form="isolated" 
d="M365 1368l188 -186l-188 -187l-185 187zM779 212q-16 -4 -40.5 -9t-44.5 -10q-56 -11 -120 -25.5t-119.5 -39t-92 -62t-36.5 -94.5q0 -45 14 -77t38.5 -53.5t57 -33.5t68.5 -16h-1q8 -1 16 -1h18q50 0 105.5 12t104.5 24q16 5 40 11.5t39 9.5l41 -243q-88 -26 -177 -44.5
t-172 -18.5q-55 0 -107 9.5t-100.5 31.5t-92.5 59t-81 91q-35 54 -55.5 114t-20.5 125q0 85 40.5 172t127.5 162q-42 66 -61 130t-19 125q0 100 47 182t132 134q42 26 88 39t93 13q52 0 105 -16.5t103 -45.5l-31 -260q-32 29 -66.5 42t-64.5 13q-27 0 -53 -7t-46 -20.5
t-32.5 -33t-12.5 -45.5q0 -7 0.5 -13.5t1.5 -11.5q5 -23 18.5 -50.5t27.5 -53.5q3 -4 4.5 -6.5t4.5 -8.5q78 22 173 44t185 38z" />
    <glyph glyph-name="uni0641" unicode="&#x641;" horiz-adv-x="1437" arabic-form="isolated" 
d="M996 1368l186 -186l-186 -187l-185 187zM887 372q0 -27 9.5 -48t25.5 -35.5t36.5 -22.5t41.5 -8q20 -2 39.5 4.5t34.5 21t24.5 36.5t9.5 52v169q0 30 -9.5 52.5t-24.5 37t-34.5 21t-39.5 5.5q-21 -1 -41.5 -9t-36.5 -22.5t-25.5 -36t-9.5 -48.5v-169zM643 260
q-6 23 -10.5 53t-4.5 56v176q0 76 29 143.5t79.5 117.5t118 79.5t144.5 29.5q76 0 143 -29.5t117.5 -79.5t80 -117.5t29.5 -143.5v-176q0 -76 -29.5 -143.5t-80 -118t-117.5 -80t-143 -29.5q-140 0 -280 1t-281 1q-76 0 -143 29t-117.5 79t-79.5 117t-29 144v87h259v-83
q0 -27 9.5 -48t25 -35.5t35.5 -22t40 -7.5h205z" />
    <glyph glyph-name="uni0642" unicode="&#x642;" horiz-adv-x="1197" arabic-form="isolated" 
d="M650 372q0 -27 9.5 -48t25 -35.5t36 -22.5t41.5 -8q20 -2 39.5 4.5t35 21t25 36.5t9.5 52v169q0 30 -9.5 52.5t-25 36.5t-35 21t-39.5 6q-21 -1 -41.5 -9t-36 -22.5t-25 -36t-9.5 -48.5v-169zM618 1369l136 -138l136 138l186 -186l-186 -187l-135 137l-137 -137l-186 187
zM599 -394q-102 -3 -198 26t-171 89t-120 150t-45 209v103h260v-98q0 -58 22.5 -101t59 -72t83 -43.5t94.5 -14.5q40 0 79 10.5t72.5 30.5t59 49.5t38.5 67.5q-22 -6 -42 -8.5t-43 -2.5q-71 0 -135.5 29t-114 79t-79 117t-29.5 143v176q0 76 29 143.5t79.5 117.5t118 79.5
t144.5 29.5q76 0 143.5 -29.5t117.5 -79.5t79.5 -117.5t29.5 -143.5v-212q0 -31 -2 -77.5t-9.5 -102.5t-22 -117t-40.5 -120.5t-64.5 -114t-94 -96.5t-129.5 -68.5t-170 -30.5z" />
    <glyph glyph-name="uni0643" unicode="&#x643;" horiz-adv-x="1336" arabic-form="isolated" 
d="M534 752q-30 -2 -56 8.5t-45 30t-28 46.5t-6 58q6 35 23.5 61.5t39.5 51.5l-1 -1l4.5 4.5l4.5 4.5l166 194l147 -102l-159 -183h79q55 0 97 -18t69.5 -47t41.5 -66.5t14 -76.5t-14 -76t-41.5 -66.5t-69.5 -47t-97 -17.5h-231q-60 0 -106 23t-78 61l131 147
q8 -21 21.5 -35t33.5 -14h227q24 0 35.5 9t11.5 20t-11.5 21t-35.5 10h-167zM1269 1190v-784q0 -128 -51.5 -223.5t-136 -159.5t-192.5 -95.5t-221 -31.5t-221 31.5t-192.5 95.5t-136 159.5t-51.5 223.5v50h259v-46q0 -66 29.5 -115.5t78.5 -82.5t110.5 -49.5t126.5 -16.5
q63 0 124 16.5t109 49.5t77 82.5t29 115.5v780h259z" />
    <glyph glyph-name="uni0644" unicode="&#x644;" horiz-adv-x="1034" arabic-form="isolated" 
d="M971 1190l-4 -1030q0 -62 -6 -119t-23.5 -108.5t-49.5 -97.5t-83 -86q-60 -47 -135.5 -73t-152.5 -26q-85 0 -166.5 31t-145.5 88t-103 136t-39 175v375h260v-370q0 -44 16.5 -77t44 -55t62.5 -33.5t71 -11.5q37 0 72 10.5t62.5 32.5t44 55.5t16.5 78.5v1105h259z" />
    <glyph glyph-name="uni0645" unicode="&#x645;" horiz-adv-x="1126" arabic-form="isolated" 
d="M581 308q7 -4 21.5 -10t33 -11.5t39 -9.5t41.5 -4q17 0 32.5 4.5t27.5 15t19 28.5t7 46v174q0 30 -9.5 52.5t-25 36.5t-35 21t-39.5 6q-21 -1 -41 -9t-36 -22.5t-25.5 -36t-9.5 -48.5v-233zM142 -343q-32 81 -54.5 168t-22.5 169q0 57 13 109.5t43.5 97.5t80 80.5
t121.5 58.5q0 51 -1 102.5t-1 102.5q0 76 29 143.5t79.5 117.5t118 79.5t144.5 29.5q76 0 143 -29.5t117 -79.5t79.5 -117.5t29.5 -143.5v-186q0 -77 -28.5 -144t-79.5 -118q-57 -55 -112.5 -77.5t-114.5 -22.5q-51 0 -102 12t-107 32q-22 8 -43 12t-39 4q-38 0 -65.5 -23
t-32.5 -76q-2 -45 18.5 -120.5t72.5 -180.5h-286z" />
    <glyph glyph-name="uni0646" unicode="&#x646;" horiz-adv-x="1034" arabic-form="isolated" 
d="M437 995l186 -185l-186 -185l-186 185zM972 761v-681q0 -96 -39 -175t-103 -136t-145.5 -88t-166.5 -31t-167 31t-146 88t-103 136t-39 175v375h261v-370q0 -44 16.5 -77t43.5 -55t62 -33.5t72 -11.5q36 0 71 10.5t62.5 32.5t44 55.5t16.5 78.5v676h260z" />
    <glyph glyph-name="uni0647" unicode="&#x647;" horiz-adv-x="862" arabic-form="isolated" 
d="M322 372q0 -27 9.5 -48t25 -35.5t35 -22.5t40.5 -8q20 -2 39.5 4.5t35 21t25 36.5t9.5 52v169q0 30 -9.5 52.5t-25 36.5t-35 21t-39.5 6q-21 -1 -40.5 -9t-35 -22.5t-25 -36t-9.5 -48.5v-169zM802 369q0 -76 -29.5 -143.5t-80 -118t-118 -80t-143.5 -29.5t-143.5 29.5
t-118 79.5t-80 117.5t-29.5 144.5v176q0 76 29.5 143.5t80 117.5t118 79.5t143.5 29.5t143.5 -29.5t118 -79.5t80 -117.5t29.5 -143.5v-176z" />
    <glyph glyph-name="uni0648" unicode="&#x648;" horiz-adv-x="862" arabic-form="isolated" 
d="M322 372q0 -27 9.5 -48t25 -35.5t35 -22t40.5 -8.5q20 -2 39.5 4.5t35 21t25 36.5t9.5 52v169q0 30 -9.5 52.5t-25 36.5t-35 21t-39.5 6q-21 -1 -40.5 -9t-35 -22.5t-25 -36t-9.5 -48.5v-169zM116 -73q46 -19 92 -29.5t86 -10.5q34 0 67 7t60.5 22t49 39t33.5 57
q-24 -6 -47.5 -9.5t-46.5 -3.5q-70 0 -133.5 26.5t-111.5 73t-76.5 110t-28.5 138.5v198q0 76 29.5 143.5t80 117.5t118 79.5t143.5 29.5t143.5 -29.5t118 -79.5t80 -117.5t29.5 -143.5v-179q0 -94 -8 -184.5t-28.5 -171.5t-55.5 -149t-89.5 -117.5t-131 -77t-178.5 -27.5
q-85 0 -195 22v266z" />
    <glyph glyph-name="uni0649" unicode="&#x649;" horiz-adv-x="1282" arabic-form="isolated" 
d="M416 0q-97 2 -164 36.5t-108 92.5t-59.5 135.5t-18.5 165.5l233 92q0 -42 8.5 -87.5t29 -84t55.5 -64t89 -26.5h365q54 0 79.5 24.5t25.5 55.5q0 19 -8 37t-23 32t-37.5 22.5t-50.5 8.5l-122 -2q-59 -2 -104.5 9t-78 32.5t-52 51t-26.5 64.5q-2 14 -3 27t-1 27
q0 73 33.5 135t85 114.5t112.5 96.5t116 81q10 5 25 16t24 17l161 -208q-81 -39 -152.5 -87t-128.5 -116h62q54 0 106 -5t103 -22h-1q58 -20 100.5 -52t70 -72.5t41 -87.5t13.5 -95q0 -68 -25 -133t-72.5 -116.5t-115.5 -83t-155 -31.5h-432z" />
    <glyph glyph-name="uni064A" unicode="&#x64a;" horiz-adv-x="1282" arabic-form="isolated" 
d="M416 0q-97 2 -164 36.5t-108 92.5t-59.5 135.5t-18.5 165.5l233 92q0 -42 8.5 -87.5t29 -84t55.5 -64t89 -26.5h365q54 0 79.5 24.5t25.5 55.5q0 19 -8 37t-23 32t-37.5 22.5t-50.5 8.5l-122 -2q-59 -2 -104.5 9t-78 32.5t-52 51t-26.5 64.5q-2 14 -3 27t-1 27
q0 73 33.5 135t85 114.5t112.5 96.5t116 81q10 5 25 16t24 17l161 -208q-81 -39 -152.5 -87t-128.5 -116h62q54 0 106 -5t103 -22h-1q58 -20 100.5 -52t70 -72.5t41 -87.5t13.5 -95q0 -68 -25 -133t-72.5 -116.5t-115.5 -83t-155 -31.5h-432z" />
    <glyph glyph-name="uni067E" unicode="&#x67e;" horiz-adv-x="1332" arabic-form="isolated" 
d="M1094 768q48 -35 82.5 -82.5t55.5 -98.5q17 -42 24.5 -83t7.5 -81q0 -106 -53.5 -194.5t-153.5 -147.5q-82 -48 -183 -72t-206 -24q-113 0 -221 27.5t-192.5 83t-136 138t-51.5 193.5v51h259v-47q0 -48 29.5 -84.5t77.5 -61t109.5 -37t125.5 -12.5q54 0 106.5 9
t97.5 27.5t78.5 46t49.5 62.5q5 28 5 47q0 48 -23 91t-62 90zM491 -596l186 186l187 -186l-187 -186zM352 -301l186 185q31 -30 68 -66t69 -68l136 134l185 -185l-185 -185l-137 137l-136 -137z" />
    <glyph glyph-name="uni0686" unicode="&#x686;" horiz-adv-x="992" arabic-form="isolated" 
d="M829 283q-17 2 -39.5 2.5t-41.5 0.5q-67 0 -138 -13t-131 -43t-102.5 -78.5t-52.5 -119.5q-1 -7 -1.5 -14.5t-0.5 -12.5q0 -35 11 -67.5t34 -60.5t58.5 -48.5t84.5 -29.5h-1q14 -2 54 -4q55 0 51.5 -126.5t-89.5 -126.5q-57 0 -111 9.5t-104 31.5t-94.5 59t-81.5 91
q-34 50 -52 117.5t-18 143.5q0 19 0.5 39t3.5 39q13 93 52 167.5t99 131t137 95t165 61.5q-39 30 -83 47t-93 17q-71 0 -181 -53l-6 249q54 43 104.5 62t99.5 19q51 0 101 -16.5t98.5 -42.5t96.5 -59.5t95 -67.5q41 -31 84 -61t96 -59zM537 -123l134 134l135 -134l-135 -134
zM437 89l134 134q22 -21 49 -47.5t50 -49.5l97 97l134 -134l-134 -133l-98 99l-98 -99z" />
    <glyph glyph-name="uni0698" unicode="&#x698;" horiz-adv-x="813" arabic-form="isolated" 
d="M550 769q52 -44 90 -99.5t63 -119t37.5 -132.5t12.5 -139q0 -80 -15 -160t-43.5 -152.5t-71 -135t-97.5 -109t-123 -72.5t-147 -26q-86 0 -196 40v262q98 -38 163 -38q69 0 119.5 31.5t84 84t49.5 120.5t16 140q0 95 -29 186.5t-86 158.5zM464 1509l187 -186l-187 -186
l-186 186zM325 1213l136 -137l137 137l185 -185l-185 -186l-136 135q-32 -32 -69 -68.5t-68 -66.5l-186 186z" />
    <glyph glyph-name="uni06AF" unicode="&#x6af;" horiz-adv-x="1861" arabic-form="isolated" 
d="M791 260q2 1 4 1q3 0 6 1l1 -2h638q28 0 49.5 8t36 21.5t21.5 31t7 36.5t-7.5 37.5t-21.5 33t-35.5 23.5t-49.5 9h-513q-47 -3 -89 8.5t-73.5 35.5t-49.5 60t-18 83v15q0 8 1 15q11 62 42 108.5t69 89.5q2 4 6 8.5t7 7.5l292 337l196 -170l-291 -337h425q90 0 158 -31
t113.5 -82t68 -116t22.5 -132q0 -68 -22.5 -132.5t-68 -115t-113.5 -81.5t-159 -28h-885q-55 6 -111 23q-108 31 -192.5 95t-136 159.5t-51.5 223.5v50h259v-46q0 -66 29.5 -115.5t78.5 -82.5t111 -49q3 -1 10 0zM618 745q-14 43 -8 92q5 34 16.5 62t28 52.5t36.5 48
t41 48.5l244 281l84 -75z" />
    <glyph glyph-name="uniFB57" unicode="&#x67e;" horiz-adv-x="1331" arabic-form="final" 
d="M1205 373q0 -27 11 -48t28.5 -35.5t40 -22t46.5 -7.5v-260q-78 0 -143.5 24t-113.5 66q-43 -29 -93.5 -51t-106.5 -37t-116 -22.5t-120 -7.5q-72 0 -142 11.5t-133.5 35t-117.5 60.5t-93 87.5t-61.5 115.5t-22.5 145v51h260v-47q0 -48 27 -85t72 -61.5t104 -38t123 -14.5
q8 0 32.5 2.5t57 9.5t68.5 18t65.5 28.5t49 41.5t19.5 56v373h259v-388zM491 -596l186 186l187 -186l-187 -186zM352 -301l186 185q31 -30 68 -66t69 -68l136 134l185 -185l-185 -185l-137 137l-136 -137z" />
    <glyph glyph-name="uniFB58" unicode="&#x67e;" horiz-adv-x="544" arabic-form="initial" 
d="M489 761v-392q0 -77 -30.5 -144t-83.5 -117t-123.5 -79t-279.5 -24v260q154 -5 176.5 2.5t40.5 22t29 35.5t11 48v388h260zM126 -499l149 148l150 -148l-150 -149zM15 -263l149 147q25 -24 54.5 -52.5t54.5 -54.5l109 107l148 -147l-148 -148l-109 109l-109 -109z" />
    <glyph glyph-name="uniFB59" unicode="&#x67e;" horiz-adv-x="560" arabic-form="medial" 
d="M445 373q0 -27 11 -48t28.5 -35.5t40 -22t46.5 -7.5v-260q-77 0 -142.5 23.5t-114.5 64.5q-49 -41 -114.5 -64.5t-226.5 -17.5v260q108 -6 130.5 1.5t40.5 22t29 35.5t11 48v388h261v-388zM132 -499l149 149l150 -149l-150 -148zM21 -263l149 148q25 -24 54.5 -52.5
t54.5 -54.5l109 107l148 -148l-148 -148l-109 110l-109 -110z" />
    <glyph glyph-name="uniFB7B" unicode="&#x686;" horiz-adv-x="954" arabic-form="final" 
d="M959 0q-69 0 -130 19t-109.5 54t-82.5 84.5t-49 110.5q-49 -11 -94.5 -29.5t-82 -47t-60 -68t-28.5 -91.5q-2 -38 8 -75t32.5 -69t58.5 -55.5t88 -33.5h-1q14 -2 27 -3t27 -1q55 0 110 12t103 24q13 4 33 10t31 8l40 -244q-88 -26 -178.5 -44.5t-176.5 -18.5
q-56 0 -110.5 9.5t-104 31.5t-94 59t-81.5 91h1q-35 51 -54 119t-19 145q0 19 1 38.5t4 37.5q13 93 52 167t98 130t135 94.5t165 60.5q-48 31 -95.5 47.5t-96.5 16.5q-33 0 -74 -12.5t-88 -40.5l-6 251q53 43 103 62t99 19q51 0 100.5 -16.5t99 -43t97.5 -60t96 -67.5
q41 -30 84.5 -60t96.5 -59l-89 -242q14 -31 45 -45.5t69 -14.5v-260zM468 -827l134 134l135 -134l-135 -134zM368 -614l134 134q22 -22 49 -48t50 -49l97 97l134 -134l-134 -133l-98 98l-98 -98z" />
    <glyph glyph-name="uniFB7C" unicode="&#x686;" horiz-adv-x="1060" arabic-form="initial" 
d="M918 264q-44 1 -85.5 -8t-82 -23.5t-80 -34t-78.5 -39.5q-54 -28 -115 -57t-134 -52t-158.5 -37.5t-187.5 -12.5v260q75 0 138 8.5t126 29t133.5 56t160.5 89.5q-77 58 -157 96.5t-162 38.5q-34 0 -73.5 -9.5t-84.5 -29.5l-1 248q54 43 104 62t99 19q48 0 98 -17t100 -44
t98.5 -60t93.5 -65q40 -29 80.5 -57t82 -50t83.5 -36.5t85 -16.5zM337 -574l186 186l187 -186l-187 -186zM198 -279l186 186q31 -30 68 -66.5t69 -68.5l136 135l185 -186l-185 -185l-137 137l-136 -137z" />
    <glyph glyph-name="uniFB7D" unicode="&#x686;" horiz-adv-x="1140" arabic-form="medial" 
d="M1141 0h-1143v260h641q-12 14 -22.5 28.5t-21.5 28.5q-31 40 -60.5 75.5t-61 62.5t-66.5 43t-76 16q-35 0 -82.5 -14.5t-112.5 -46.5l-5 250q60 49 116 70.5t110 21.5q14 0 28 -1t27 -4h-1q63 -11 117.5 -43t102.5 -76t91 -95.5t82 -102.5q33 -42 64 -81t62 -68
t61.5 -46.5t62.5 -17.5h87v-260zM410 -573l186 186l187 -186l-187 -186zM271 -278l186 186q31 -30 68 -66.5t69 -68.5l136 135l185 -186l-185 -185l-137 137l-136 -137z" />
    <glyph glyph-name="uniFB8B" unicode="&#x698;" horiz-adv-x="865" arabic-form="final" 
d="M726 360q0 -26 0.5 -47t-0.5 -53h144v-260h-168q-9 -47 -28 -95.5t-39 -82.5q-27 -39 -65 -72.5t-87 -57.5t-108 -37.5t-129 -13.5q-41 0 -87 4.5t-97 15.5v266q47 -19 92.5 -29.5t85.5 -10.5q38 0 73.5 8.5t65 26.5t49.5 47t28 70v-2q5 66 8.5 135t3.5 148v37
q0 19 -1 39v365h259v-401zM523 1509l187 -186l-187 -186l-186 186zM384 1213l136 -137l137 137l185 -185l-185 -186l-136 135q-32 -32 -69 -68.5t-68 -66.5l-186 186z" />
    <glyph glyph-name="uniFB8F" unicode="&#x6a9;" horiz-adv-x="1398" arabic-form="final" 
d="M535 752q-30 -2 -56.5 8.5t-45.5 29.5t-28 46t-4 59v-1q5 38 22.5 63.5t40.5 51.5q4 7 7 8q39 45 83.5 96.5t82.5 96.5l147 -102l-158 -183h79q55 0 97 -18t69.5 -47t41.5 -66t14 -76t-14 -76.5t-41.5 -66.5t-69.5 -47t-97 -18h-231q-60 0 -106.5 23t-77.5 61l131 147
q8 -21 21.5 -35t33.5 -14h226q24 0 35.5 9t11.5 20t-12 21t-35 10h-167zM1271 1190v-784q0 -27 6 -53.5t20.5 -47t38.5 -33t61 -12.5v-260q-75 0 -137.5 22.5t-111.5 60.5q-43 -47 -97.5 -82t-116 -58.5t-129 -35t-135.5 -11.5q-113 0 -221 31.5t-192.5 95.5t-136 159.5
t-51.5 223.5v50h259v-46q0 -66 29.5 -115.5t78.5 -82.5t110.5 -49.5t126.5 -16.5q63 0 124 16.5t108.5 49.5t76.5 82.5t29 115.5v780h260z" />
    <glyph glyph-name="uniFB90" unicode="&#x6a9;" horiz-adv-x="1313" arabic-form="initial" 
d="M366 460q-47 -3 -89 8.5t-73.5 35.5t-49.5 60t-18 83v15t1 15q11 62 42 108.5t69 89.5q2 4 6 8.5t7 7.5l292 337l196 -170l-291 -337h425q90 0 158 -31t113.5 -82t68 -116t22.5 -132q0 -68 -22.5 -132.5t-68 -115t-113.5 -81.5t-158 -31h-883v260h879q28 0 49.5 8
t36 21.5t21.5 31t7 36.5t-7.5 37.5t-21.5 33t-35.5 23.5t-49.5 9h-513z" />
    <glyph glyph-name="uniFB91" unicode="&#x6a9;" horiz-adv-x="1387" arabic-form="medial" 
d="M368 460q-45 -1 -87 11t-73.5 35.5t-50.5 58.5t-19 80v15q0 9 1 17q11 64 41.5 109.5t70.5 90.5l-1 -1q2 3 5.5 7.5t5.5 7.5q34 39 71.5 81.5t75.5 86t75 86.5t71 83l197 -170l-293 -337h427q79 0 146.5 -29t117 -77.5t77.5 -113t28 -135.5q0 -28 -4 -53t-12 -53h147
v-260h-1383v260h878q29 0 50.5 8t35.5 21.5t21 31t7 36.5t-7.5 37.5t-22 33t-35.5 23.5t-49 9h-512z" />
    <glyph glyph-name="uniFB93" unicode="&#x6af;" horiz-adv-x="1964" arabic-form="final" 
d="M557 3q-54 6 -110 22q-108 32 -192.5 96t-136 159.5t-51.5 223.5v50h259v-46q0 -66 29.5 -115.5t78.5 -82.5t111 -50h246q2 0 4 1q3 0 6 1l1 -2h635q32 3 53.5 11t35.5 21.5t21 31.5q7 16 7 34q0 19 -7 37q-8 18 -22 32.5t-35.5 23.5t-49.5 9h-513q-47 -3 -89 8.5
t-73.5 35.5t-49.5 60t-18 83v15q0 8 1 15q11 62 42 108.5t69 89.5q2 4 6 8.5t7 7.5l292 337l196 -170l-291 -337h425q90 0 158 -31q13 -6 25 -12q46 -25 82 -61q49 -48 77 -112.5t28 -135.5q0 -28 -4 -53t-12 -53h193v-260h-1434zM618 745q-14 43 -8 92q5 34 16.5 62
t28 52.5t36.5 48t41 48.5l244 281l84 -75z" />
    <glyph glyph-name="uniFB94" unicode="&#x6af;" horiz-adv-x="1313" arabic-form="initial" 
d="M366 460q-47 -3 -89 8.5t-73.5 35.5t-49.5 60t-18 83v15t1 15q11 62 42 108.5t69 89.5q2 4 6 8.5t7 7.5l292 337l196 -170l-291 -337h425q90 0 158 -31t113.5 -82t68 -116t22.5 -132q0 -68 -22.5 -132.5t-68 -115t-113.5 -81.5t-158 -31h-883v260h879q28 0 49.5 8
t36 21.5t21.5 31t7 36.5t-7.5 37.5t-21.5 33t-35.5 23.5t-49.5 9h-513zM51 751q-14 43 -8 92q5 34 16.5 62t28 52.5t36.5 48t41 48.5l244 281l84 -75z" />
    <glyph glyph-name="uniFB95" unicode="&#x6af;" horiz-adv-x="1375" arabic-form="medial" 
d="M368 460q-45 -1 -87 11t-73.5 35.5t-50.5 58.5t-19 80v15q0 9 1 17q11 64 41.5 109.5t70.5 90.5l-1 -1q2 3 5.5 7.5t5.5 7.5q34 39 71.5 81.5t75.5 86t75 86.5t71 83l197 -170l-293 -337h427q79 0 146.5 -29t117 -77.5t77.5 -113t28 -135.5q0 -28 -4 -53t-12 -53h176
v-260h-1412v260h878q29 0 50.5 8t35.5 21.5t21 31t7 36.5t-7.5 37.5t-22 33t-35.5 23.5t-49 9h-512zM57 750q-14 43 -8 92q5 34 16.5 62t28 52.5t36.5 48t41 48.5l244 281l84 -75z" />
    <glyph glyph-name="uniFBA5" unicode="&#x6c0;" horiz-adv-x="925" arabic-form="final" 
d="M324 373q0 -27 9.5 -48t24.5 -35t34.5 -21.5t40.5 -8.5h50l-85 -258q-71 9 -132 41t-106 81t-71 112t-26 133v176q0 76 29.5 143.5t79.5 117.5t117.5 79.5t143.5 29.5t143.5 -29.5t118 -79.5t80 -117.5t29.5 -143.5v-172q0 -27 11 -48t28.5 -35.5t40 -22t45.5 -7.5v-260
q-79 0 -149 29t-122.5 79t-83.5 117t-31 144v172q0 30 -9.5 52.5t-24.5 36.5t-34.5 21t-40.5 6t-41 -9t-35 -22.5t-24.5 -36t-9.5 -48.5v-168z" />
    <glyph glyph-name="uniFBFD" unicode="&#x6cc;" horiz-adv-x="1307" arabic-form="final" 
d="M1307 0h-126q-1 -69 -31 -132t-81.5 -118t-119 -99t-144 -76t-157 -49t-157.5 -17q-38 0 -68 3q-90 9 -156.5 49t-110.5 99.5t-66 133.5t-22 151q0 23 2 47.5t5 51.5l243 95q-7 -43 -10.5 -73t-3.5 -50q0 -67 19 -113t51.5 -74t74.5 -40t88 -12q61 0 122 15.5t110 39.5
t80 52t31 52q0 22 -44 36.5t-147 12.5l-91 -1l95 277l614 -1v-260z" />
    <glyph glyph-name="uniFBFE" unicode="&#x6cc;" horiz-adv-x="587" arabic-form="initial" 
d="M530 369q0 -77 -29 -144t-79 -117t-117.5 -79t-143.5 -29h-171v260h169q21 0 41 7.5t35.5 22t25 35.5t9.5 48v388h260v-392zM107 -83l135 -136l136 136l187 -185l-187 -186l-135 135q-33 -32 -69 -68.5t-67 -66.5l-186 186z" />
    <glyph glyph-name="uniFBFF" unicode="&#x6cc;" horiz-adv-x="492" arabic-form="medial" 
d="M93 -83l125 -131l126 131l173 -179l-173 -181l-125 131q-31 -31 -64 -66t-62 -65l-172 181zM377 373q0 -27 10.5 -48t28.5 -35.5t40.5 -22t46.5 -7.5v-260q-77 0 -142.5 23.5t-114.5 64.5q-49 -41 -114.5 -64.5t-141.5 -23.5v260q23 0 45.5 7.5t40.5 22t29 35.5t11 48
v388h261v-388z" />
    <glyph glyph-name="uniFE82" unicode="&#x622;" horiz-adv-x="478" arabic-form="final" 
d="M-30 1212q0 84 60 159q34 43 98 43q26 0 59 -7.5t71 -24.5q53 -22 98 -22q73 0 123 69l27 -12q-32 -193 -160 -193q-43 0 -90 20q-72 29 -122 29q-85 0 -134 -70zM102 1190h260v-817q0 -27 11 -48t28.5 -35.5t40.5 -22t47 -7.5v-260q-80 0 -150.5 29t-123 79t-83 117
t-30.5 144v821z" />
    <glyph glyph-name="uniFE84" unicode="&#x623;" horiz-adv-x="475" arabic-form="final" 
d="M375 1256q-39 0 -75.5 -0.5t-73 -2.5t-74 -7t-79.5 -15l-23 115l74 19q-11 20 -15.5 39t-4.5 37q0 33 14.5 61.5t37.5 49.5t53 33t62 12q24 0 49.5 -9t51.5 -29l-30 -110q-18 6 -34.5 11t-26.5 5q-13 0 -23.5 -4t-16.5 -15q-4 -8 -4 -16q0 -17 11 -29q12 -16 31.5 -20.5
t41.5 -4.5q9 0 18 0.5t17 0.5h-1q8 1 21 1h28zM100 1190h260v-817q0 -27 11 -48t29 -35.5t40.5 -22t46.5 -7.5v-260q-80 0 -150.5 29t-123 79t-83 117t-30.5 144v821z" />
    <glyph glyph-name="uniFE86" unicode="&#x624;" horiz-adv-x="933" arabic-form="final" 
d="M324 372q0 -27 9.5 -48t24.5 -35.5t34.5 -22t40.5 -8.5h111v283q0 30 -9.5 52.5t-25.5 36.5t-35.5 21t-40.5 6t-40.5 -9t-34.5 -22.5t-24.5 -36t-9.5 -48.5v-169zM601 995q-51 0 -99.5 -0.5t-96.5 -3.5t-97 -9.5t-102 -18.5l-29 143l100 26q-29 53 -29 105q0 43 18.5 80
t49 64.5t70 43t80.5 15.5q32 0 64.5 -11t64.5 -35l-40 -139q-20 8 -40.5 14t-36.5 6q-18 0 -33.5 -6.5t-23.5 -22.5q-7 -11 -7 -24q0 -22 16 -41q19 -23 47 -30.5t58 -7.5q12 0 22.5 0.5t21.5 1.5t30.5 1.5t27.5 0.5zM938 0h-173q-24 -93 -70.5 -161t-109 -112.5t-138 -66
t-156.5 -21.5q-77 0 -174 24v264q48 -19 94 -30t87 -11q33 0 64 6t57.5 19t47.5 34t33 51q-11 -2 -23 -2h-26q-41 0 -85.5 7t-87.5 23t-82 43t-68.5 66t-47 92t-17.5 122v198q0 76 29 143.5t79.5 117.5t117.5 79.5t143 29.5t143.5 -29.5t118.5 -79.5t80.5 -117.5
t29.5 -143.5v-131t-0.5 -78t-1 -45t-1.5 -31h137v-260z" />
    <glyph glyph-name="uniFE88" unicode="&#x625;" horiz-adv-x="475" arabic-form="final" 
d="M414 -399h-76q-36 0 -72.5 -2.5t-74 -7.5t-78.5 -14l-23 113l73 20q-10 20 -14.5 39.5t-4.5 36.5q0 33 14 61.5t37 49.5t53 33t62 12q23 0 49 -8.5t52 -28.5l-31 -111q-17 7 -33.5 11.5t-27.5 4.5q-12 0 -23 -4t-16 -15q-5 -10 -5 -17q0 -13 11 -29q13 -15 32.5 -19.5
t41.5 -4.5q8 0 17 0.5t17 0.5h-1q8 1 22 1h28zM100 1190h261v-817q0 -27 11 -48t28.5 -35.5t40 -22t46.5 -7.5v-260q-80 0 -150.5 29t-123 79t-83 117t-30.5 144v821z" />
    <glyph glyph-name="uniFE8A" unicode="&#x626;" horiz-adv-x="1307" arabic-form="final" 
d="M462 227q-51 0 -99.5 -0.5t-96.5 -3t-97 -9t-102 -18.5l-30 142l100 26q-14 26 -20.5 53t-6.5 53q0 43 18.5 80t49 64.5t69.5 43t80 15.5q31 0 64 -11t65 -35l-39 -140q-21 8 -42 14t-37 6q-17 0 -32 -6t-24 -22q-7 -11 -7 -26q0 -21 16 -40q20 -23 48 -30t57 -7
q12 0 22.5 0.5t21.5 1.5q5 0 13.5 0.5l17 1t15.5 0.5h12zM1307 0h-127q-1 -69 -31 -132t-81 -118t-119 -99t-144 -76t-157 -49t-158 -17q-37 0 -68 3q-89 9 -156 49t-111 99.5t-66 133.5t-22 151q0 23 2 47.5t6 51.5l243 95q-8 -43 -11 -73t-3 -50q0 -67 19 -113t51.5 -74
t74.5 -40t88 -12q60 0 121.5 15.5t110.5 39.5t80 52t31 52q0 22 -44 36.5t-148 12.5l-91 -1l95 277l615 -1v-260z" />
    <glyph glyph-name="uniFE8B" unicode="&#x626;" horiz-adv-x="430" arabic-form="initial" 
d="M372 855q-51 0 -99.5 -0.5t-96.5 -3.5t-97 -9.5t-102 -18.5l-29 142l100 27q-29 52 -29 105q0 43 18.5 80t49.5 64.5t70 43t81 15.5q31 0 63.5 -11t64.5 -35l-40 -140q-20 8 -40.5 14.5t-36.5 6.5q-40 0 -57 -29q-7 -11 -7 -25q0 -22 16 -41q19 -23 47 -30t58 -7
q12 0 22.5 0.5t21.5 1.5q6 0 14 0.5t16.5 1t15.5 0.5h11zM374 761v-392q0 -77 -30.5 -144t-83 -117t-123 -79t-149.5 -29v260q24 0 46.5 7.5t40.5 22t29 35.5t11 48v388h259z" />
    <glyph glyph-name="uniFE8C" unicode="&#x626;" horiz-adv-x="492" arabic-form="medial" 
d="M433 855q-51 0 -99.5 -0.5t-96.5 -3.5t-97 -9.5t-102 -18.5l-28 142l100 27q-15 26 -22 52.5t-7 52.5q0 43 18.5 80t49 64.5t69.5 43t80 15.5q32 0 65 -11t65 -35l-41 -140q-20 8 -40.5 14.5t-36.5 6.5q-18 0 -33.5 -6.5t-23.5 -22.5q-7 -11 -7 -25q0 -22 16 -41
q20 -23 47.5 -30t57.5 -7q12 0 22.5 0.5t21.5 1.5t30.5 1.5t28.5 0.5zM377 373q0 -27 11 -48t28.5 -35.5t40 -22t46.5 -7.5v-260q-77 0 -142.5 23.5t-114.5 64.5q-49 -41 -114.5 -64.5t-141.5 -23.5v260q23 0 45.5 7.5t40.5 22t29 35.5t11 48v388h261v-388z" />
    <glyph glyph-name="uniFE8E" unicode="&#x627;" horiz-adv-x="430" arabic-form="final" 
d="M55 1190h261v-817q0 -27 11 -48t28.5 -35.5t40.5 -22t47 -7.5v-260q-80 0 -150.5 29t-123.5 79t-83.5 117t-30.5 144v821z" />
    <glyph glyph-name="uniFE90" unicode="&#x628;" horiz-adv-x="1331" arabic-form="final" 
d="M646 -130l187 -186l-187 -186l-185 186zM1205 373q0 -27 11 -48t28.5 -35.5t40 -22t46.5 -7.5v-260q-78 0 -143.5 24t-113.5 66q-43 -29 -93.5 -51t-106.5 -37t-116 -22.5t-120 -7.5q-72 0 -142 11.5t-133.5 35t-117.5 60.5t-93 87.5t-61.5 115.5t-22.5 145v51h260v-47
q0 -48 27 -85t72 -61.5t104 -38t123 -14.5q8 0 32.5 2.5t57 9.5t68.5 18t65.5 28.5t49 41.5t19.5 56v373h259v-388z" />
    <glyph glyph-name="uniFE91" unicode="&#x628;" horiz-adv-x="430" arabic-form="initial" 
d="M189 -86l187 -186l-187 -185l-186 185zM375 761v-392q0 -77 -30.5 -144t-83.5 -117t-123.5 -79t-149.5 -29v260q24 0 46.5 7.5t40.5 22t29 35.5t11 48v388h260z" />
    <glyph glyph-name="uniFE92" unicode="&#x628;" horiz-adv-x="492" arabic-form="medial" 
d="M244 -86l188 -186l-188 -185l-185 185zM377 373q0 -27 11 -48t28.5 -35.5t40 -22t46.5 -7.5v-260q-77 0 -142.5 23.5t-114.5 64.5q-49 -41 -114.5 -64.5t-141.5 -23.5v260q23 0 45.5 7.5t40.5 22t29 35.5t11 48v388h261v-388z" />
    <glyph glyph-name="uniFE96" unicode="&#x62a;" horiz-adv-x="1331" arabic-form="final" 
d="M612 960l136 136l186 -185l-186 -187l-135 137l-137 -137l-185 187l185 185zM1205 373q0 -27 11 -48t28.5 -35.5t40 -22t46.5 -7.5v-260q-78 0 -143.5 24t-113.5 66q-43 -29 -93.5 -51t-106.5 -37t-116 -22.5t-120 -7.5q-72 0 -142 11.5t-133.5 35t-117.5 60.5t-93 87.5
t-61.5 115.5t-22.5 145v51h260v-47q0 -48 27 -85t72 -61.5t104 -38t123 -14.5q8 0 32.5 2.5t57 9.5t68.5 18t65.5 28.5t49 41.5t19.5 56v373h259v-388z" />
    <glyph glyph-name="uniFE97" unicode="&#x62a;" horiz-adv-x="587" arabic-form="initial" 
d="M268 1082l137 137l186 -185l-186 -186l-136 135q-33 -32 -69 -68.5t-67 -66.5l-186 186l186 185zM530 369q0 -77 -29 -144t-79 -117t-117.5 -79t-143.5 -29h-171v260h169q21 0 41 7.5t35.5 22t25 35.5t9.5 48v388h260v-392z" />
    <glyph glyph-name="uniFE98" unicode="&#x62a;" horiz-adv-x="492" arabic-form="medial" 
d="M108 1219l135 -137l136 137l186 -185l-186 -186l-135 135q-33 -32 -69 -68.5t-67 -66.5l-186 186zM377 373q0 -27 10.5 -48t28.5 -35.5t40.5 -22t46.5 -7.5v-260q-77 0 -142.5 23.5t-114.5 64.5q-49 -41 -114.5 -64.5t-141.5 -23.5v260q23 0 45.5 7.5t40.5 22t29 35.5
t11 48v388h261v-388z" />
    <glyph glyph-name="uniFE9A" unicode="&#x62b;" horiz-adv-x="1331" arabic-form="final" 
d="M802 1205l-187 -184l-186 184l186 187zM612 960l136 136l186 -185l-186 -187l-135 137l-137 -137l-185 187l185 185zM1205 373q0 -27 11 -48t28.5 -35.5t40 -22t46.5 -7.5v-260q-78 0 -143.5 24t-113.5 66q-43 -29 -93.5 -51t-106.5 -37t-116 -22.5t-120 -7.5
q-72 0 -142 11.5t-133.5 35t-117.5 60.5t-93 87.5t-61.5 115.5t-22.5 145v51h260v-47q0 -48 27 -85t72 -61.5t104 -38t123 -14.5q8 0 32.5 2.5t57 9.5t68.5 18t65.5 28.5t49 41.5t19.5 56v373h259v-388z" />
    <glyph glyph-name="uniFE9B" unicode="&#x62b;" horiz-adv-x="587" arabic-form="initial" 
d="M458 1329l-187 -186l-186 186l186 186zM268 1082l137 137l186 -185l-186 -186l-136 135q-33 -32 -69 -68.5t-67 -66.5l-186 186l186 185zM530 369q0 -77 -29 -144t-79 -117t-117.5 -79t-143.5 -29h-171v260h169q21 0 41 7.5t35.5 22t25 35.5t9.5 48v388h260v-392z" />
    <glyph glyph-name="uniFE9C" unicode="&#x62b;" horiz-adv-x="492" arabic-form="medial" 
d="M245 1515l187 -186l-187 -186l-185 186zM108 1219l135 -137l136 137l186 -185l-186 -186l-135 135q-33 -32 -69 -68.5t-67 -66.5l-186 186zM377 373q0 -27 10.5 -48t28.5 -35.5t40.5 -22t46.5 -7.5v-260q-77 0 -142.5 23.5t-114.5 64.5q-49 -41 -114.5 -64.5
t-141.5 -23.5v260q23 0 45.5 7.5t40.5 22t29 35.5t11 48v388h261v-388z" />
    <glyph glyph-name="uniFE9E" unicode="&#x62c;" horiz-adv-x="954" arabic-form="final" 
d="M528 168l160 -159l-160 -159l-159 159zM959 0q-69 0 -130 19t-109.5 54t-82.5 84.5t-49 110.5q-49 -11 -94.5 -29.5t-82 -47t-60 -68t-28.5 -91.5q-2 -38 8 -75t32.5 -69t58.5 -55.5t88 -33.5h-1q14 -2 27 -3t27 -1q55 0 110 12t103 24q13 4 33 10t31 8l40 -244
q-88 -26 -178.5 -44.5t-176.5 -18.5q-56 0 -110.5 9.5t-104 31.5t-94 59t-81.5 91h1q-35 51 -54 119t-19 145q0 19 1 38.5t4 37.5q13 93 52 167t98 130t135 94.5t165 60.5q-48 31 -95.5 47.5t-96.5 16.5q-33 0 -74 -12.5t-88 -40.5l-6 251q53 43 103 62t99 19
q51 0 100.5 -16.5t99 -43t97.5 -60t96 -67.5q41 -30 84.5 -60t96.5 -59l-89 -242q14 -31 45 -45.5t69 -14.5v-260z" />
    <glyph glyph-name="uniFE9F" unicode="&#x62c;" horiz-adv-x="1060" arabic-form="initial" 
d="M376 -86l187 -186l-187 -185l-185 185zM918 264q-44 1 -85.5 -8t-82 -23.5t-80 -34t-78.5 -39.5q-54 -28 -115 -57t-134 -52t-158.5 -37.5t-187.5 -12.5v260q75 0 138 8.5t126 29t133.5 56t160.5 89.5q-77 58 -157 96.5t-162 38.5q-34 0 -73.5 -9.5t-84.5 -29.5l-1 248
q54 43 104 62t99 19q48 0 98 -17t100 -44t98.5 -60t93.5 -65q40 -29 80.5 -57t82 -50t83.5 -36.5t85 -16.5z" />
    <glyph glyph-name="uniFEA0" unicode="&#x62c;" horiz-adv-x="1140" arabic-form="medial" 
d="M451 -86l187 -186l-187 -185l-186 185zM1141 0h-1143v260h641q-12 14 -22.5 28.5t-21.5 28.5q-31 40 -60.5 75.5t-61 62.5t-66.5 43t-76 16q-35 0 -82.5 -14.5t-112.5 -46.5l-5 250q60 49 116 70.5t110 21.5q14 0 28 -1t27 -4h-1q63 -11 117.5 -43t102.5 -76t91 -95.5
t82 -102.5q33 -42 64 -81t62 -68t61.5 -46.5t62.5 -17.5h87v-260z" />
    <glyph glyph-name="uniFEA2" unicode="&#x62d;" horiz-adv-x="954" arabic-form="final" 
d="M959 0q-69 0 -130 19t-109.5 54t-82.5 84.5t-49 110.5q-49 -11 -94.5 -29.5t-82 -47t-60 -68t-28.5 -91.5q-2 -38 8 -75t32.5 -69t58.5 -55.5t88 -33.5h-1q14 -2 27 -3t27 -1q55 0 110 12t103 24q13 4 33 10t31 8l40 -244q-88 -26 -178.5 -44.5t-176.5 -18.5
q-56 0 -110.5 9.5t-104 31.5t-94 59t-81.5 91h1q-35 51 -54 119t-19 145q0 19 1 38.5t4 37.5q13 93 52 167t98 130t135 94.5t165 60.5q-48 31 -95.5 47.5t-96.5 16.5q-33 0 -74 -12.5t-88 -40.5l-6 251q53 43 103 62t99 19q51 0 100.5 -16.5t99 -43t97.5 -60t96 -67.5
q41 -30 84.5 -60t96.5 -59l-89 -242q14 -31 45 -45.5t69 -14.5v-260z" />
    <glyph glyph-name="uniFEA3" unicode="&#x62d;" horiz-adv-x="1060" arabic-form="initial" 
d="M918 264q-44 1 -85.5 -8t-82 -23.5t-80 -34t-78.5 -39.5q-54 -28 -115 -57t-134 -52t-158.5 -37.5t-187.5 -12.5v260q75 0 138 8.5t126 29t133.5 56t160.5 89.5q-77 58 -157 96.5t-162 38.5q-34 0 -73.5 -9.5t-84.5 -29.5l-1 248q54 43 104 62t99 19q48 0 98 -17t100 -44
t98.5 -60t93.5 -65q40 -29 80.5 -57t82 -50t83.5 -36.5t85 -16.5z" />
    <glyph glyph-name="uniFEA4" unicode="&#x62d;" horiz-adv-x="1140" arabic-form="medial" 
d="M1141 0h-1143v260h641q-12 14 -22.5 28.5t-21.5 28.5q-31 40 -60.5 75.5t-61 62.5t-66.5 43t-76 16q-35 0 -82.5 -14.5t-112.5 -46.5l-5 250q60 49 116 70.5t110 21.5q14 0 28 -1t27 -4h-1q63 -11 117.5 -43t102.5 -76t91 -95.5t82 -102.5q33 -42 64 -81t62 -68
t61.5 -46.5t62.5 -17.5h87v-260z" />
    <glyph glyph-name="uniFEA6" unicode="&#x62e;" horiz-adv-x="954" arabic-form="final" 
d="M453 1288l187 -186l-187 -186l-185 186zM959 0q-69 0 -130 19t-109.5 54t-82.5 84.5t-49 110.5q-49 -11 -94.5 -29.5t-82 -47t-60 -68t-28.5 -91.5q-2 -38 8 -75t32.5 -69t58.5 -55.5t88 -33.5h-1q14 -2 27 -3t27 -1q55 0 110 12t103 24q13 4 33 10t31 8l40 -244
q-88 -26 -178.5 -44.5t-176.5 -18.5q-56 0 -110.5 9.5t-104 31.5t-94 59t-81.5 91h1q-35 51 -54 119t-19 145q0 19 1 38.5t4 37.5q13 93 52 167t98 130t135 94.5t165 60.5q-48 31 -95.5 47.5t-96.5 16.5q-33 0 -74 -12.5t-88 -40.5l-6 251q53 43 103 62t99 19
q51 0 100.5 -16.5t99 -43t97.5 -60t96 -67.5q41 -30 84.5 -60t96.5 -59l-89 -242q14 -31 45 -45.5t69 -14.5v-260z" />
    <glyph glyph-name="uniFEA7" unicode="&#x62e;" horiz-adv-x="1060" arabic-form="initial" 
d="M286 1295l187 -186l-187 -185l-185 185zM918 264q-44 1 -85.5 -8t-82 -23.5t-80 -34t-78.5 -39.5q-54 -28 -115 -57t-134 -52t-158.5 -37.5t-187.5 -12.5v260q75 0 138 8.5t126 29t133.5 56t160.5 89.5q-77 58 -157 96.5t-162 38.5q-34 0 -73.5 -9.5t-84.5 -29.5l-1 248
q54 43 104 62t99 19q48 0 98 -17t100 -44t98.5 -60t93.5 -65q40 -29 80.5 -57t82 -50t83.5 -36.5t85 -16.5z" />
    <glyph glyph-name="uniFEA8" unicode="&#x62e;" horiz-adv-x="1140" arabic-form="medial" 
d="M410 1240l187 -186l-187 -185l-185 185zM1141 0h-1143v260h641q-12 14 -22.5 28.5t-21.5 28.5q-31 40 -60.5 75.5t-61 62.5t-66.5 43t-76 16q-35 0 -82.5 -14.5t-112.5 -46.5l-5 250q60 49 116 70.5t110 21.5q14 0 28 -1t27 -4h-1q63 -11 117.5 -43t102.5 -76t91 -95.5
t82 -102.5q33 -42 64 -81t62 -68t61.5 -46.5t62.5 -17.5h87v-260z" />
    <glyph glyph-name="uniFEAA" unicode="&#x62f;" horiz-adv-x="874" arabic-form="final" 
d="M537 870l225 -544q15 -30 48 -48t70 -18v-260q-76 0 -142 23.5t-114 64.5q-49 -41 -110 -64.5t-129 -23.5h-323v260h318q36 0 60.5 14.5t24.5 51.5q0 32 -25 96v-1q-34 85 -71.5 175t-71.5 173z" />
    <glyph glyph-name="uniFEAC" unicode="&#x630;" horiz-adv-x="874" arabic-form="final" 
d="M401 1287l187 -187l-187 -185l-184 185zM537 870l225 -544q15 -30 48 -48t70 -18v-260q-76 0 -142 23.5t-114 64.5q-49 -41 -110 -64.5t-129 -23.5h-323v260h318q36 0 60.5 14.5t24.5 51.5q0 32 -25 96v-1q-34 85 -71.5 175t-71.5 173z" />
    <glyph glyph-name="uniFEAE" unicode="&#x631;" horiz-adv-x="865" arabic-form="final" 
d="M726 360q0 -26 0.5 -47t-0.5 -53h144v-260h-168q-9 -47 -28 -95.5t-39 -82.5q-27 -39 -65 -72.5t-87 -57.5t-108 -37.5t-129 -13.5q-41 0 -87 4.5t-97 15.5v266q47 -19 92.5 -29.5t85.5 -10.5q38 0 73.5 8.5t65 26.5t49.5 47t28 70v-2q5 66 8.5 135t3.5 148v37
q0 19 -1 39v365h259v-401z" />
    <glyph glyph-name="uniFEB0" unicode="&#x632;" horiz-adv-x="865" arabic-form="final" 
d="M590 1214l187 -186l-187 -186l-185 186zM726 360q0 -26 0.5 -47t-0.5 -53h144v-260h-168q-9 -47 -28 -95.5t-39 -82.5q-27 -39 -65 -72.5t-87 -57.5t-108 -37.5t-129 -13.5q-41 0 -87 4.5t-97 15.5v266q47 -19 92.5 -29.5t85.5 -10.5q38 0 73.5 8.5t65 26.5t49.5 47
t28 70v-2q5 66 8.5 135t3.5 148v37q0 19 -1 39v365h259v-401z" />
    <glyph glyph-name="uniFEB2" unicode="&#x633;" horiz-adv-x="2082" arabic-form="final" 
d="M987 761v-501h111q21 0 41 7.5t35.5 22t25 35.5t9.5 48v388h260v-388q0 -27 9 -47.5t24 -34.5t34.5 -22t39.5 -9q20 1 39.5 8.5t35 21.5t25 35t9.5 48v388h261v-388q0 -27 11 -48t28.5 -35.5t40 -22t46.5 -7.5v-260q-76 0 -142.5 23.5t-114.5 64.5q-48 -41 -107.5 -63.5
t-128.5 -24.5q-68 0 -130 23.5t-110 64.5q-48 -41 -110 -64.5t-131 -23.5h-118q-15 -80 -58.5 -144.5t-104.5 -110.5t-135 -70.5t-150 -24.5q-85 0 -167 31t-146 88t-103 136t-39 175v375h262v-370q0 -44 16.5 -77t43.5 -55t62 -33.5t71 -11.5q37 0 72 10.5t62 32.5
t43.5 55.5t16.5 78.5v676h261z" />
    <glyph glyph-name="uniFEB3" unicode="&#x633;" horiz-adv-x="1411" arabic-form="initial" 
d="M1343 761v-392q0 -76 -29 -143t-78.5 -116.5t-116 -79t-142.5 -30.5q-69 0 -130.5 23.5t-109.5 64.5q-51 -42 -111.5 -63t-126.5 -25q-66 0 -128 23t-113 65q-49 -41 -114.5 -64.5t-142.5 -23.5v260q24 0 46.5 7.5t40.5 22t29 35.5t11 48v388h259v-388q0 -27 9.5 -47.5
t25 -35t35.5 -22.5t40 -8q21 0 40.5 8t34.5 22.5t24.5 35t9.5 47.5v388h261v-388q0 -27 9.5 -48t24.5 -35t34.5 -21.5t39.5 -8.5q20 1 39.5 9t34.5 22t24 34.5t9 47.5v388h261z" />
    <glyph glyph-name="uniFEB4" unicode="&#x633;" horiz-adv-x="1474" arabic-form="medial" 
d="M1345 761v-388q0 -27 11 -48t29 -35.5t40.5 -22t45.5 -7.5v-260q-77 0 -142.5 23.5t-113.5 64.5q-48 -41 -108 -63.5t-128 -24.5q-69 0 -130.5 23.5t-109.5 64.5q-51 -42 -111.5 -63t-127.5 -25q-66 0 -128 23.5t-112 65.5q-49 -42 -115 -65.5t-142 -23.5v260
q24 0 46.5 7.5t40.5 22t29 35.5t11 48v388h260v-388q0 -27 9.5 -47.5t25 -35t35 -22.5t39.5 -8t39.5 8t35 22.5t25 35t9.5 47.5v388h260v-388q0 -27 9.5 -48t25 -35t35 -21.5t39.5 -8.5q20 1 39.5 9t34.5 22t24 34.5t9 47.5v388h261z" />
    <glyph glyph-name="uniFEB6" unicode="&#x634;" horiz-adv-x="2082" arabic-form="final" 
d="M1341 1515l187 -186l-187 -186l-186 186zM1202 1219l136 -137l137 137l185 -185l-185 -186l-136 135q-32 -32 -69 -68.5t-68 -66.5l-186 186zM987 761v-501h111q21 0 41 7.5t35.5 22t25 35.5t9.5 48v388h260v-388q0 -27 9 -47.5t24 -34.5t34.5 -22t39.5 -9q20 1 39.5 8.5
t35 21.5t25 35t9.5 48v388h261v-388q0 -27 11 -48t28.5 -35.5t40 -22t46.5 -7.5v-260q-76 0 -142.5 23.5t-114.5 64.5q-48 -41 -107.5 -63.5t-128.5 -24.5q-68 0 -130 23.5t-110 64.5q-48 -41 -110 -64.5t-131 -23.5h-118q-15 -80 -58.5 -144.5t-104.5 -110.5t-135 -70.5
t-150 -24.5q-85 0 -167 31t-146 88t-103 136t-39 175v375h262v-370q0 -44 16.5 -77t43.5 -55t62 -33.5t71 -11.5q37 0 72 10.5t62 32.5t43.5 55.5t16.5 78.5v676h261z" />
    <glyph glyph-name="uniFEB7" unicode="&#x634;" horiz-adv-x="1411" arabic-form="initial" 
d="M735 1515l187 -186l-187 -186l-185 186zM596 1219l137 -137l135 137l186 -185l-186 -186l-135 135l-68.5 -68.5t-68.5 -66.5l-185 186zM1343 761v-392q0 -76 -29 -143t-78.5 -116.5t-116 -79t-142.5 -30.5q-69 0 -130.5 23.5t-109.5 64.5q-51 -42 -111.5 -63t-126.5 -25
q-66 0 -128 23t-113 65q-49 -41 -114.5 -64.5t-142.5 -23.5v260q24 0 46.5 7.5t40.5 22t29 35.5t11 48v388h259v-388q0 -27 9.5 -47.5t25 -35t35.5 -22.5t40 -8q21 0 40.5 8t34.5 22.5t24.5 35t9.5 47.5v388h261v-388q0 -27 9 -47.5t24 -34.5t34.5 -22t39.5 -9
q20 1 39.5 8.5t34.5 21.5t24.5 35t9.5 48v388h261z" />
    <glyph glyph-name="uniFEB8" unicode="&#x634;" horiz-adv-x="1474" arabic-form="medial" 
d="M737 1515l187 -186l-187 -186l-185 186zM599 1219l135 -137l137 137l185 -185l-185 -186l-136 135q-32 -32 -69 -68.5t-67 -66.5l-187 186zM1345 761v-388q0 -27 11 -48t29 -35.5t40.5 -22t45.5 -7.5v-260q-77 0 -142.5 23.5t-113.5 64.5q-48 -41 -108 -63.5t-128 -24.5
q-69 0 -130.5 23.5t-109.5 64.5q-51 -42 -111.5 -63t-127.5 -25q-66 0 -128 23.5t-112 65.5q-49 -42 -115 -65.5t-142 -23.5v260q24 0 46.5 7.5t40.5 22t29 35.5t11 48v388h260v-388q0 -27 9.5 -47.5t25 -35t35 -22.5t39.5 -8t39.5 8t35 22.5t25 35t9.5 47.5v388h260v-388
q0 -27 9 -47.5t24 -34.5t34.5 -22t39.5 -9q21 1 40.5 8.5t34.5 21.5t24.5 35t9.5 48v388h261z" />
    <glyph glyph-name="uniFEBA" unicode="&#x635;" horiz-adv-x="2212" arabic-form="final" 
d="M1709 260q30 0 52 9.5t36 24.5t21 34.5t6 40.5t-8.5 40.5t-22 35t-35.5 25.5t-48 13q-53 3 -109 -17t-110 -53t-102 -73.5t-85 -79.5h405zM988 288q45 53 97 109t109 108.5t119 99t128 81.5t135.5 55t140.5 20q76 0 153 -27q51 -20 93.5 -55.5t73 -81t47 -98t16.5 -105.5
q0 -36 -7 -68.5t-23 -65.5h130v-260h-1220q-15 -80 -58 -144.5t-104 -110.5t-135 -70.5t-150 -24.5q-85 0 -166.5 31t-145.5 88t-103 136t-39 175v345h261v-340q0 -44 16.5 -77t44 -55t62 -33.5t70.5 -11.5q37 0 72 10.5t62.5 32.5t44 55.5t16.5 78.5v335l260 104v-236z" />
    <glyph glyph-name="uniFEBB" unicode="&#x635;" horiz-adv-x="1693" arabic-form="initial" 
d="M1246 260q31 0 53 9.5t36.5 24.5t21 34.5t5.5 40.5q-2 42 -31 75.5t-84 38.5q-53 3 -109 -17t-109.5 -53t-101.5 -73.5t-85 -79.5h404zM481 0q-35 0 -65 6t-56.5 17t-50.5 27.5t-48 37.5q-48 -41 -113.5 -64.5t-142.5 -23.5v260q24 0 47 7.5t40.5 22t28.5 35.5t11 48v57
l259 104v-161q0 -51 31.5 -80t78.5 -33q44 55 95.5 113t108.5 112t120 101.5t130 83t138 56t144 20.5q43 0 85 -7t86 -23q51 -19 90.5 -55.5t66.5 -83.5t41 -101t14 -106q0 -76 -29.5 -143.5t-79.5 -117.5t-117.5 -79.5t-143.5 -29.5h-769z" />
    <glyph glyph-name="uniFEBC" unicode="&#x635;" horiz-adv-x="1739" arabic-form="medial" 
d="M1247 260q30 0 52 9.5t36.5 24.5t21 34.5t6.5 40.5q-2 42 -31 75.5t-84 38.5q-53 3 -108.5 -17t-109 -53t-101.5 -73.5t-85 -79.5h403zM483 0q-71 0 -122 23t-98 65q-49 -41 -114.5 -64.5t-141.5 -23.5v260q24 0 46.5 7.5t40.5 22t29 35.5t11 48v57l259 104v-161
q0 -51 31 -80t79 -33q68 84 151 171.5t177.5 159.5t198.5 117.5t215 45.5q81 0 161 -28q50 -17 92 -52t72.5 -80.5t47.5 -99.5t17 -109q0 -34 -5.5 -64t-19.5 -61h122v-260h-1249z" />
    <glyph glyph-name="uniFEBE" unicode="&#x636;" horiz-adv-x="2212" arabic-form="final" 
d="M1268 1124l187 -186l-187 -185l-185 185zM1709 260q30 0 52 9.5t36 24.5t21 34.5t6 40.5t-8.5 40.5t-22 35t-35.5 25.5t-48 13q-53 3 -109 -17t-110 -53t-102 -73.5t-85 -79.5h405zM988 288q45 53 97 109t109 108.5t119 99t128 81.5t135.5 55t140.5 20q76 0 153 -27
q51 -20 93.5 -55.5t73 -81t47 -98t16.5 -105.5q0 -36 -7 -68.5t-23 -65.5h130v-260h-1220q-15 -80 -58 -144.5t-104 -110.5t-135 -70.5t-150 -24.5q-85 0 -166.5 31t-145.5 88t-103 136t-39 175v345h261v-340q0 -44 16.5 -77t44 -55t62 -33.5t70.5 -11.5q37 0 72 10.5
t62.5 32.5t44 55.5t16.5 78.5v335l260 104v-236z" />
    <glyph glyph-name="uniFEBF" unicode="&#x636;" horiz-adv-x="1693" arabic-form="initial" 
d="M925 1151l187 -186l-187 -184l-186 184zM1246 260q31 0 53 9.5t36.5 24.5t21 34.5t5.5 40.5q-2 42 -31 75.5t-84 38.5q-53 3 -109 -17t-109.5 -53t-101.5 -73.5t-85 -79.5h404zM481 0q-35 0 -65 6t-56.5 17t-50.5 27.5t-48 37.5q-48 -41 -113.5 -64.5t-142.5 -23.5v260
q24 0 47 7.5t40.5 22t28.5 35.5t11 48v57l259 104v-161q0 -51 31.5 -80t78.5 -33q44 55 95.5 113t108.5 112t120 101.5t130 83t138 56t144 20.5q43 0 85 -7t86 -23q51 -19 90.5 -55.5t66.5 -83.5t41 -101t14 -106q0 -76 -29.5 -143.5t-79.5 -117.5t-117.5 -79.5
t-143.5 -29.5h-769z" />
    <glyph glyph-name="uniFEC0" unicode="&#x636;" horiz-adv-x="1739" arabic-form="medial" 
d="M927 1151l187 -186l-187 -184l-186 184zM1247 260q30 0 52 9.5t36.5 24.5t21 34.5t6.5 40.5q-2 42 -31 75.5t-84 38.5q-53 3 -108.5 -17t-109 -53t-101.5 -73.5t-85 -79.5h403zM483 0q-71 0 -122 23t-98 65q-49 -41 -114.5 -64.5t-141.5 -23.5v260q24 0 46.5 7.5t40.5 22
t29 35.5t11 48v57l259 104v-161q0 -51 31 -80t79 -33q68 84 151 171.5t177.5 159.5t198.5 117.5t215 45.5q81 0 161 -28q50 -17 92 -52t72.5 -80.5t47.5 -99.5t17 -109q0 -34 -5.5 -64t-19.5 -61h122v-260h-1249z" />
    <glyph glyph-name="uniFEC2" unicode="&#x637;" horiz-adv-x="1480" arabic-form="final" 
d="M998 260q31 0 53 9.5t36.5 24.5t21 34.5t5.5 40.5t-8.5 40.5t-22 35t-35.5 25.5t-48 13q-53 3 -109 -17t-109.5 -53t-101.5 -73.5t-85 -79.5h403zM371 -2q-66 5 -140.5 30t-163.5 74l79 255q31 -25 58 -43.5t53 -30.5v907h260v-704q50 53 106.5 102t118.5 87t129 61
t138 23q35 0 70.5 -6.5t71.5 -20.5q55 -21 97.5 -59.5t72 -86.5t45 -102.5t15.5 -106.5q0 -32 -5.5 -61t-16.5 -56h118v-260z" />
    <glyph glyph-name="uniFEC3" unicode="&#x637;" horiz-adv-x="1324" arabic-form="initial" 
d="M883 260q30 0 52 9.5t36.5 24.5t21 34.5t5.5 40.5q-2 42 -31.5 75.5t-83.5 38.5q-53 3 -109.5 -17t-109.5 -53t-101 -73.5t-85 -79.5h405zM0 0v260h140v930h261v-699q49 48 104.5 94t116.5 82t127.5 58t138.5 22q34 0 68.5 -5t71.5 -18q51 -16 93 -53.5t72 -87
t46.5 -105.5t16.5 -108q0 -76 -29.5 -143.5t-79.5 -117.5t-117 -79.5t-143 -29.5h-887z" />
    <glyph glyph-name="uniFEC4" unicode="&#x637;" horiz-adv-x="1361" arabic-form="medial" 
d="M880 260q30 0 52 9.5t36 24.5t20.5 34.5t5.5 40.5q-1 42 -30 75.5t-84 38.5q-53 3 -109 -17t-109 -53t-101 -73.5t-85 -79.5h404zM2 260h135v930h261v-692q48 49 104.5 96.5t121 84.5t136 59.5t148.5 22.5q58 0 124 -17q57 -16 100.5 -51t73 -81.5t44.5 -101.5t15 -110
q0 -37 -5.5 -72.5t-19.5 -67.5h119v-260h-1357v260z" />
    <glyph glyph-name="uniFEC6" unicode="&#x638;" horiz-adv-x="1480" arabic-form="final" 
d="M771 1151l187 -186l-187 -184l-185 184zM998 260q31 0 53 9.5t36.5 24.5t21 34.5t5.5 40.5t-8.5 40.5t-22 35t-35.5 25.5t-48 13q-53 3 -109 -17t-109.5 -53t-101.5 -73.5t-85 -79.5h403zM371 -2q-66 5 -140.5 30t-163.5 74l79 255q31 -25 58 -43.5t53 -30.5v907h260
v-704q50 53 106.5 102t118.5 87t129 61t138 23q35 0 70.5 -6.5t71.5 -20.5q55 -21 97.5 -59.5t72 -86.5t45 -102.5t15.5 -106.5q0 -32 -5.5 -61t-16.5 -56h118v-260z" />
    <glyph glyph-name="uniFEC7" unicode="&#x638;" horiz-adv-x="1324" arabic-form="initial" 
d="M652 1151l187 -186l-187 -184l-186 184zM883 260q30 0 52 9.5t36.5 24.5t21 34.5t5.5 40.5q-2 42 -31.5 75.5t-83.5 38.5q-53 3 -109.5 -17t-109.5 -53t-101 -73.5t-85 -79.5h405zM0 0v260h140v930h261v-699q49 48 104.5 94t116.5 82t127.5 58t138.5 22q34 0 68.5 -5
t71.5 -18q51 -16 93 -53.5t72 -87t46.5 -105.5t16.5 -108q0 -76 -29.5 -143.5t-79.5 -117.5t-117 -79.5t-143 -29.5h-887z" />
    <glyph glyph-name="uniFEC8" unicode="&#x638;" horiz-adv-x="1361" arabic-form="medial" 
d="M653 1151l187 -186l-187 -184l-185 184zM880 260q30 0 52 9.5t36 24.5t20.5 34.5t5.5 40.5q-1 42 -30 75.5t-84 38.5q-53 3 -109 -17t-109 -53t-101 -73.5t-85 -79.5h404zM2 260h135v930h261v-692q48 49 104.5 96.5t121 84.5t136 59.5t148.5 22.5q58 0 124 -17
q57 -16 100.5 -51t73 -81.5t44.5 -101.5t15 -110q0 -37 -5.5 -72.5t-19.5 -67.5h119v-260h-1357v260z" />
    <glyph glyph-name="uniFECA" unicode="&#x639;" horiz-adv-x="974" arabic-form="final" 
d="M548 443q24 8 47 19t40.5 27t27 37t6.5 49q-2 25 -15 43.5t-33 30.5t-45.5 18t-52.5 6q-38 0 -75 -12t-62 -35zM980 260v-260h-238q-45 3 -78.5 8t-62.5 18.5t-59.5 39.5t-69.5 71q-31 -14 -57.5 -30.5t-46 -36.5t-30.5 -44.5t-11 -53.5q0 -45 14 -77t38.5 -53.5
t57 -33.5t68.5 -16q8 -1 16 -1h17q51 0 106.5 12t103.5 24q17 5 40.5 11.5t39.5 9.5l39 -243q-87 -26 -175.5 -44.5t-172.5 -18.5q-54 0 -106.5 9.5t-101 31.5t-92.5 59t-82 91q-35 53 -54.5 113t-19.5 125q0 48 12.5 98t39.5 98.5t69 94.5t100 86q-14 16 -28 32.5t-27 30.5
q-23 25 -42.5 49t-34 49.5t-23 53.5t-8.5 62v16q0 9 2 18v-1q7 58 38 102t76 75t98.5 50t104.5 27q39 6 88 6q58 0 119 -11.5t115 -37t96.5 -65.5t63.5 -97q20 -60 20 -119q0 -49 -14 -95.5t-39 -88.5t-59 -78.5t-74 -65.5h224z" />
    <glyph glyph-name="uniFECB" unicode="&#x639;" horiz-adv-x="965" arabic-form="initial" 
d="M902 0h-907v260h149q-45 96 -45 206q0 83 26.5 163.5t77.5 144t126 102.5t173 39q76 0 143.5 -30.5t118 -84.5t80 -128t29.5 -161h-260q0 34 -9.5 59t-24.5 41t-34 24t-37 8q-5 0 -11.5 -1t-11.5 -1q-29 -7 -49.5 -22t-33.5 -35t-19 -44t-6 -50q0 -41 13.5 -83t37 -75
t56.5 -54t72 -20l346 2v-260z" />
    <glyph glyph-name="uniFECC" unicode="&#x639;" horiz-adv-x="1005" arabic-form="medial" 
d="M548 274q22 27 46 60.5t44 69.5t33.5 72t13.5 68t-15 58q-8 13 -22.5 21.5t-33.5 14t-41.5 8t-45.5 2.5q-24 0 -47 -2t-41.5 -5t-32.5 -7t-20 -8zM1008 260v-260h-1011v260h251q-26 60 -53.5 119t-55.5 118q-15 34 -22.5 66.5t-7.5 61.5q0 61 28 110t74.5 85.5
t106.5 59.5t125 32q19 2 38 3.5t40 1.5q64 0 126 -11t113 -33q106 -42 153 -117t47 -168q0 -77 -28 -161t-79 -167h155z" />
    <glyph glyph-name="uniFECE" unicode="&#x63a;" horiz-adv-x="974" arabic-form="final" 
d="M548 443q24 8 47 19t40.5 27t27 37t6.5 49q-2 25 -15 43.5t-33 30.5t-45.5 18t-52.5 6q-38 0 -75 -12t-62 -35zM506 1368l187 -186l-187 -187l-185 187zM980 260v-260h-238q-45 3 -78.5 8t-62.5 18.5t-59.5 39.5t-69.5 71q-31 -14 -57.5 -30.5t-46 -36.5t-30.5 -44.5
t-11 -53.5q0 -45 14 -77t38.5 -53.5t57 -33.5t68.5 -16q8 -1 16 -1h17q51 0 106.5 12t103.5 24q17 5 40.5 11.5t39.5 9.5l39 -243q-87 -26 -175.5 -44.5t-172.5 -18.5q-54 0 -106.5 9.5t-101 31.5t-92.5 59t-82 91q-35 53 -54.5 113t-19.5 125q0 48 12.5 98t39.5 98.5
t69 94.5t100 86q-14 16 -28 32.5t-27 30.5q-23 25 -42.5 49t-34 49.5t-23 53.5t-8.5 62v16q0 9 2 18v-1q7 58 38 102t76 75t98.5 50t104.5 27q39 6 88 6q58 0 119 -11.5t115 -37t96.5 -65.5t63.5 -97q20 -60 20 -119q0 -49 -14 -95.5t-39 -88.5t-59 -78.5t-74 -65.5h224z
" />
    <glyph glyph-name="uniFECF" unicode="&#x63a;" horiz-adv-x="965" arabic-form="initial" 
d="M504 1368l187 -186l-187 -187l-186 187zM902 0h-907v260h149q-45 96 -45 206q0 83 26.5 163.5t77.5 144t126 102.5t173 39q76 0 143.5 -30.5t118 -84.5t80 -128t29.5 -161h-260q0 34 -9.5 59t-24.5 41t-34 24t-37 8q-5 0 -11.5 -1t-11.5 -1q-29 -7 -49.5 -22t-33.5 -35
t-19 -44t-6 -50q0 -41 13.5 -83t37 -75t56.5 -54t72 -20l346 2v-260z" />
    <glyph glyph-name="uniFED0" unicode="&#x63a;" horiz-adv-x="1005" arabic-form="medial" 
d="M548 274q22 27 46 60.5t44 69.5t33.5 72t13.5 68t-15 58q-8 13 -22.5 21.5t-33.5 14t-41.5 8t-45.5 2.5q-24 0 -47 -2t-41.5 -5t-32.5 -7t-20 -8zM524 1368l187 -186l-187 -187l-186 187zM1008 260v-260h-1011v260h251q-26 60 -53.5 119t-55.5 118q-15 34 -22.5 66.5
t-7.5 61.5q0 61 28 110t74.5 85.5t106.5 59.5t125 32q19 2 38 3.5t40 1.5q64 0 126 -11t113 -33q106 -42 153 -117t47 -168q0 -77 -28 -161t-79 -167h155z" />
    <glyph glyph-name="uniFED2" unicode="&#x641;" horiz-adv-x="1513" arabic-form="final" 
d="M998 1368l187 -186l-187 -187l-185 187zM891 372q0 -27 9.5 -48t25 -35.5t35.5 -22t40 -8.5q20 -2 40 4.5t35.5 21t25 36.5t9.5 52v169q0 30 -9.5 52.5t-25 36.5t-35.5 21t-40 6t-40 -9t-35.5 -22.5t-25 -36t-9.5 -48.5v-169zM1510 0h-1068q-77 0 -144.5 29t-118 79
t-80 117t-29.5 144v87h261v-83q0 -27 9.5 -48t25 -35.5t35.5 -22t41 -7.5h204q-8 26 -12 53.5t-4 55.5v176q0 76 29.5 143.5t79.5 117.5t117.5 79.5t143.5 29.5t143.5 -29.5t118 -79.5t80 -117.5t29.5 -143.5v-176q0 -28 -3.5 -55.5t-12.5 -53.5h155v-260z" />
    <glyph glyph-name="uniFED3" unicode="&#x641;" horiz-adv-x="934" arabic-form="initial" 
d="M504 1368l186 -186l-186 -187l-186 187zM391 372q0 -27 9.5 -48t25.5 -35.5t35.5 -22t40.5 -8.5q20 -2 40 4.5t35.5 21t25 36.5t9.5 52v169q0 30 -9.5 52.5t-25 36.5t-35.5 21t-40 6q-21 -1 -40.5 -9t-35.5 -22.5t-25.5 -36t-9.5 -48.5v-169zM-5 0v260h151
q-8 26 -12 53.5t-4 55.5v176q0 76 29.5 143.5t80 117.5t118 79.5t143.5 29.5t143.5 -29.5t117.5 -79.5t79.5 -117.5t29.5 -143.5v-176q0 -76 -29.5 -143.5t-79.5 -118t-117.5 -80t-143.5 -29.5z" />
    <glyph glyph-name="uniFED4" unicode="&#x641;" horiz-adv-x="1005" arabic-form="medial" 
d="M505 1368l188 -186l-188 -187l-185 187zM394 372q0 -27 9.5 -48t25 -35.5t35.5 -22t41 -8.5q20 -2 39.5 4.5t35 21t25 36.5t9.5 52v169q0 30 -9.5 52.5t-25 36.5t-35 21t-39.5 6q-21 -1 -41 -9t-35.5 -22.5t-25 -36t-9.5 -48.5v-169zM1008 0h-1011v260h152
q-9 26 -12.5 53.5t-3.5 55.5v176q0 76 29.5 143.5t80 117.5t118 79.5t143.5 29.5t143 -29.5t117.5 -79.5t80 -117.5t29.5 -143.5v-176q0 -58 -15 -109h149v-260z" />
    <glyph glyph-name="uniFED6" unicode="&#x642;" horiz-adv-x="1272" arabic-form="final" 
d="M652 373q0 -27 9.5 -48t25 -35t35 -21.5t40.5 -8.5h111v281q0 30 -9.5 52.5t-25 36.5t-35 21t-40.5 6t-40.5 -9t-35.5 -22.5t-25.5 -36t-9.5 -48.5v-168zM620 1369l136 -138l137 138l185 -186l-185 -187l-136 137l-137 -137l-186 187zM1127 0q-21 -99 -74 -173
t-126 -123.5t-160.5 -74.5t-177.5 -25q-99 0 -193 30t-167 89.5t-117.5 148.5t-44.5 208v103h259v-98q0 -58 23.5 -101t62 -72t87.5 -43.5t100 -14.5q41 0 81 9.5t74.5 27.5t61.5 45.5t42 63.5h-96q-76 0 -143.5 29t-118 79t-80 117t-29.5 144v176q0 76 29.5 143.5t80 117.5
t118 79.5t143.5 29.5t144 -29.5t118.5 -79.5t80 -117.5t29.5 -143.5v-285h139v-260h-146z" />
    <glyph glyph-name="uniFED7" unicode="&#x642;" horiz-adv-x="934" arabic-form="initial" 
d="M391 372q0 -27 9.5 -48t25.5 -35.5t35.5 -22t40.5 -8.5q20 -2 40 4.5t35.5 21t25 36.5t9.5 52v169q0 30 -9.5 52.5t-25 36.5t-35.5 21t-40 6q-21 -1 -40.5 -9t-35.5 -22.5t-25.5 -36t-9.5 -48.5v-169zM365 1369l135 -138l137 138l186 -186l-186 -187l-136 137
q-32 -32 -68.5 -69t-67.5 -68l-188 187zM-5 0v260h151q-8 26 -12 53.5t-4 55.5v176q0 76 29.5 143.5t80 117.5t118 79.5t143.5 29.5t143.5 -29.5t117.5 -79.5t79.5 -117.5t29.5 -143.5v-176q0 -76 -29.5 -143.5t-79.5 -118t-117.5 -80t-143.5 -29.5z" />
    <glyph glyph-name="uniFED8" unicode="&#x642;" horiz-adv-x="1005" arabic-form="medial" 
d="M394 372q0 -27 9.5 -48t25 -35.5t35.5 -22t41 -8.5q20 -2 39.5 4.5t35 21t25 36.5t9.5 52v169q0 30 -9.5 52.5t-25 36.5t-35 21t-39.5 6q-21 -1 -41 -9t-35.5 -22.5t-25 -36t-9.5 -48.5v-169zM366 1369l136 -138l136 138l187 -186l-187 -187l-135 137q-33 -32 -69.5 -69
t-67.5 -68l-186 187zM1008 0h-1011v260h152q-9 26 -12.5 53.5t-3.5 55.5v176q0 76 29.5 143.5t80 117.5t118 79.5t143.5 29.5t143 -29.5t117.5 -79.5t80 -117.5t29.5 -143.5v-176q0 -58 -15 -109h149v-260z" />
    <glyph glyph-name="uniFEDE" unicode="&#x644;" horiz-adv-x="1104" arabic-form="final" 
d="M973 260h135v-260h-142q-15 -80 -58.5 -144.5t-104.5 -110.5t-134.5 -70.5t-149.5 -24.5q-85 0 -167 31t-146 88t-103 136t-39 175v375h261v-370q0 -44 16.5 -77t44 -55t62.5 -33.5t71 -11.5t71 10.5t62.5 32.5t44 55.5t16.5 78.5v1105h260v-930z" />
    <glyph glyph-name="uniFEDF" unicode="&#x644;" horiz-adv-x="512" arabic-form="initial" 
d="M376 1190v-821q0 -77 -31 -144t-83.5 -117t-123.5 -79t-150 -29v260q24 0 47 7.5t40.5 22t28.5 35.5t11 48v817h261z" />
    <glyph glyph-name="uniFEE0" unicode="&#x644;" horiz-adv-x="492" arabic-form="medial" 
d="M377 1190v-817q0 -27 11 -48t28.5 -35.5t40 -22t46.5 -7.5v-260q-77 0 -142.5 23.5t-114.5 64.5q-49 -41 -114.5 -64.5t-141.5 -23.5v260q23 0 45.5 7.5t40.5 22t29 35.5t11 48v817h261z" />
    <glyph glyph-name="uniFEE2" unicode="&#x645;" horiz-adv-x="1184" arabic-form="final" 
d="M583 308q7 -4 21.5 -10t33 -11.5t39 -9.5t41.5 -4q16 0 31.5 4.5t27.5 15t19.5 28.5t7.5 46v174q0 30 -9.5 52.5t-25 37t-35 21t-40.5 5.5t-40.5 -9t-35.5 -22.5t-25.5 -36t-9.5 -48.5v-233zM1186 0h-402q-52 0 -90 3t-66.5 8t-50 11.5t-39.5 12.5q-5 2 -10.5 3.5
t-8.5 2.5q-21 7 -42 11t-41 4q-38 0 -65.5 -22t-32.5 -76q-1 -45 19 -120.5t71 -180.5h-284q-32 81 -54.5 168t-22.5 169q0 57 13.5 109.5t43.5 97.5t79 80.5t121 58.5v205q-1 76 28.5 143.5t79.5 117.5t117.5 79.5t143.5 29.5t143.5 -29.5t118 -79.5t80 -117.5t29.5 -143.5
v-186q0 -25 -3 -50.5t-10 -48.5h135v-260z" />
    <glyph glyph-name="uniFEE3" unicode="&#x645;" horiz-adv-x="947" arabic-form="initial" 
d="M404 372q0 -27 9.5 -48t24.5 -35.5t35 -22.5t41 -8q21 -2 41 4.5t35 21t24.5 36.5t9.5 52v169q0 30 -9.5 52.5t-24.5 37t-35 21t-41 5.5t-41 -9t-35 -22.5t-24.5 -36t-9.5 -48.5v-169zM-5 261q32 -1 59 4.5t47 19t31.5 35t11.5 52.5v173q0 76 29 143.5t79.5 117.5
t117.5 79.5t144 29.5q76 0 143.5 -29.5t118 -79.5t80 -117.5t29.5 -143.5v-176q0 -76 -29.5 -143.5t-80 -118t-118 -80t-143.5 -29.5q-69 0 -131 24t-110 65q-29 -26 -60.5 -42t-65.5 -25.5t-72 -14t-80 -5.5v261z" />
    <glyph glyph-name="uniFEE4" unicode="&#x645;" horiz-adv-x="1021" arabic-form="medial" 
d="M406 372q0 -27 9.5 -48t25 -35.5t35 -22t40.5 -8.5h110v283q0 30 -9.5 52.5t-25 36.5t-35 21t-40.5 6t-40.5 -9t-35 -22.5t-25 -36t-9.5 -48.5v-169zM1024 0l-509 -2q-69 0 -130.5 24t-109.5 65q-29 -26 -60.5 -42t-65.5 -25.5t-72 -14t-80 -5.5v261q64 -2 105.5 23.5
t41.5 87.5v173q0 76 29.5 143.5t79.5 117.5t117.5 79.5t144.5 29.5q76 0 144 -29.5t118 -79.5t79.5 -117.5t29.5 -143.5v-285h138v-260z" />
    <glyph glyph-name="uniFEE6" unicode="&#x646;" horiz-adv-x="1104" arabic-form="final" 
d="M438 995l188 -185l-188 -185l-185 185zM973 761v-501h135v-260h-142q-15 -80 -58.5 -144.5t-105 -110.5t-135 -70.5t-148.5 -24.5q-86 0 -167.5 31t-145.5 88t-103 136t-39 175v375h261v-370q0 -44 16.5 -77t44 -55t62.5 -33.5t71 -11.5t71 10.5t62.5 32.5t44 55.5
t16.5 78.5v676h260z" />
    <glyph glyph-name="uniFEE7" unicode="&#x646;" horiz-adv-x="430" arabic-form="initial" 
d="M249 1214l187 -186l-187 -186l-185 186zM376 761v-392q0 -77 -30.5 -144t-83.5 -117t-123.5 -79t-149.5 -29v260q24 0 46.5 7.5t40 22t28.5 35.5t11 48v388h261z" />
    <glyph glyph-name="uniFEE8" unicode="&#x646;" horiz-adv-x="492" arabic-form="medial" 
d="M250 1214l187 -186l-187 -186l-186 186zM377 373q0 -27 11 -48t28.5 -35.5t40 -22t46.5 -7.5v-260q-77 0 -142.5 23.5t-114.5 64.5q-49 -41 -114.5 -64.5t-141.5 -23.5v260q23 0 45.5 7.5t40.5 22t29 35.5t11 48v388h261v-388z" />
    <glyph glyph-name="uniFEEA" unicode="&#x647;" horiz-adv-x="925" arabic-form="final" 
d="M324 373q0 -27 9.5 -48t24.5 -35t34.5 -21.5t40.5 -8.5h50l-85 -258q-71 9 -132 41t-106 81t-71 112t-26 133v176q0 76 29.5 143.5t79.5 117.5t117.5 79.5t143.5 29.5t143.5 -29.5t118 -79.5t80 -117.5t29.5 -143.5v-172q0 -27 11 -48t28.5 -35.5t40 -22t45.5 -7.5v-260
q-79 0 -149 29t-122.5 79t-83.5 117t-31 144v172q0 30 -9.5 52.5t-24.5 36.5t-34.5 21t-40.5 6t-41 -9t-35 -22.5t-24.5 -36t-9.5 -48.5v-168z" />
    <glyph glyph-name="uniFEEB" unicode="&#x647;" horiz-adv-x="1396" arabic-form="initial" 
d="M879 481v-112q0 -28 -4 -55.5t-12 -53.5h90q30 0 52 9.5t36.5 24.5t21 34.5t5.5 40.5q0 21 -8 41t-22.5 36t-35.5 25.5t-49 9.5h-74zM398 258h111q20 0 40 6.5t35.5 20.5t25 35.5t9.5 51.5v169q0 30 -9.5 52.5t-25 36.5t-35 21t-39.5 6q-21 -1 -41.5 -9t-36 -22.5
t-25 -36t-9.5 -48.5v-283zM1 0v260h138q0 71 -1 143t-1 142q0 76 29.5 143.5t80 117.5t118 79.5t144.5 29.5q48 0 93.5 -13t86 -36t74.5 -55t59 -70h135q76 0 144 -29.5t118 -79.5t79.5 -118t29.5 -144t-29.5 -143.5t-80 -117.5t-118 -79.5t-143.5 -29.5h-956z" />
    <glyph glyph-name="uniFEEC" unicode="&#x647;" horiz-adv-x="1463" arabic-form="medial" 
d="M875 481v-112q0 -58 -15 -109h206v110q0 21 -8 41t-23 35.5t-36.5 25t-48.5 9.5h-75zM394 258h111q21 0 40.5 6.5t35.5 20.5t25.5 35.5t9.5 51.5v169q0 30 -9.5 52.5t-25 36.5t-35.5 21t-40 6q-21 -1 -41.5 -9t-36 -22.5t-25 -36t-9.5 -48.5v-283zM-2 0v260h138
q0 71 -0.5 143t-0.5 142q0 76 29.5 143.5t79.5 117.5t117.5 79.5t143.5 29.5q48 0 94 -13t86.5 -36t74.5 -55t59 -70h135q76 0 143.5 -29.5t118 -79.5t79.5 -118t29 -144l1 -110h140v-260h-1467z" />
    <glyph glyph-name="uniFEEE" unicode="&#x648;" horiz-adv-x="933" arabic-form="final" 
d="M324 372q0 -27 9.5 -48t24.5 -35.5t34.5 -22t40.5 -8.5h111v283q0 30 -9.5 52.5t-25.5 36.5t-35.5 21t-40.5 6t-40.5 -9t-34.5 -22.5t-24.5 -36t-9.5 -48.5v-169zM938 0h-173q-24 -93 -70.5 -161t-109 -112.5t-138 -66t-156.5 -21.5q-77 0 -174 24v264q48 -19 94 -30
t87 -11q33 0 64 6t57.5 19t47.5 34t33 51q-11 -2 -23 -2h-26q-41 0 -85.5 7t-87.5 23t-82 43t-68.5 66t-47 92t-17.5 122v198q0 76 29 143.5t79.5 117.5t117.5 79.5t143 29.5t143.5 -29.5t118.5 -79.5t80.5 -117.5t29.5 -143.5v-131t-0.5 -78t-1 -45t-1.5 -31h137v-260z" />
    <glyph glyph-name="uniFEF0" unicode="&#x649;" horiz-adv-x="1307" arabic-form="final" 
d="M1307 0h-126q-1 -69 -31 -132t-81.5 -118t-119 -99t-144 -76t-157 -49t-157.5 -17q-38 0 -68 3q-90 9 -156.5 49t-110.5 99.5t-66 133.5t-22 151q0 23 2 47.5t5 51.5l243 95q-7 -43 -10.5 -73t-3.5 -50q0 -67 19 -113t51.5 -74t74.5 -40t88 -12q61 0 122 15.5t110 39.5
t80 52t31 52q0 22 -44 36.5t-147 12.5l-91 -1l95 277l614 -1v-260z" />
    <glyph glyph-name="glyph1" 
 />
    <glyph glyph-name="glyph2" horiz-adv-x="500" 
 />
    <glyph glyph-name="space" unicode=" " horiz-adv-x="500" 
 />
    <glyph glyph-name="exclam" unicode="!" horiz-adv-x="485" 
d="M373 881l-2 -379l-39 -329h-156l-37 329v379h234zM412 -34q0 -60 -45 -107q-22 -18 -50.5 -28.5t-60.5 -10.5q-65 0 -113 37q-41 39 -41 109q0 63 42 99t112 36q35 0 62 -8t49.5 -26t33.5 -42.5t11 -58.5z" />
    <glyph glyph-name="percent" unicode="%" horiz-adv-x="829" 
d="M719 1291l-419 -1391l-238 -127l418 1391zM99 1139l169 -168l-169 -167l-167 167zM656 314l169 -168l-169 -167l-167 167z" />
    <glyph glyph-name="parenleft" unicode="(" horiz-adv-x="534" 
d="M480 1424q-73 -183 -109.5 -380.5t-36.5 -408.5q0 -424 146 -791l-230 -41q-81 211 -120 422.5t-39 409.5q0 97 9.5 203t29.5 215.5t50 219t71 214.5z" />
    <glyph glyph-name="parenright" unicode=")" horiz-adv-x="534" 
d="M276 1487q41 -105 71 -214.5t50 -219t29.5 -215.5t9.5 -203q0 -198 -39 -409.5t-120 -422.5l-230 41q146 367 146 791q0 211 -36.5 408.5t-109.5 380.5z" />
    <glyph glyph-name="asterisk" unicode="*" horiz-adv-x="1299" 
d="M1233 1075l-77 208l-347 -99v315h-253l4 -310l-349 97l-81 -208l353 -98l-217 -255l201 -124l213 250l216 -250l206 124l-216 255z" />
    <glyph glyph-name="plus" unicode="+" horiz-adv-x="1041" 
d="M418 344h-347v205h347v346h205v-346h346v-205h-346v-346h-205v346z" />
    <glyph glyph-name="comma" unicode="," horiz-adv-x="495" 
d="M114 430q0 129 134 129h133v-223q0 -139 -65 -221t-202 -115v96q90 30 121 88q23 40 27 116h-68h-80v130z" />
    <glyph glyph-name="hyphen" unicode="-" horiz-adv-x="593" 
d="M48 612h497v-235h-497v235z" />
    <glyph glyph-name="period" unicode="." horiz-adv-x="497" 
d="M259 281l169 -168l-169 -167l-167 167z" />
    <glyph glyph-name="slash" unicode="/" horiz-adv-x="658" 
d="M658 1291l-420 -1391l-238 -127l419 1391z" />
    <glyph glyph-name="zero" unicode="0" horiz-adv-x="1149" 
d="M768 594l-101 -347l-286 171l101 353z" />
    <glyph glyph-name="zero" unicode="&#x6f0;" horiz-adv-x="1149" 
d="M768 594l-101 -347l-286 171l101 353z" />
    <glyph glyph-name="zero" unicode="&#x660;" horiz-adv-x="1149" 
d="M768 594l-101 -347l-286 171l101 353z" />
    <glyph glyph-name="one" unicode="1" horiz-adv-x="1149" 
d="M476 1200q52 -68 96.5 -153t81 -179.5t64 -196t46.5 -202t29.5 -196.5t11.5 -181l-105 -216q-59 295 -142.5 542t-192.5 447z" />
    <glyph glyph-name="one" unicode="&#x6f1;" horiz-adv-x="1149" 
d="M476 1200q52 -68 96.5 -153t81 -179.5t64 -196t46.5 -202t29.5 -196.5t11.5 -181l-105 -216q-59 295 -142.5 542t-192.5 447z" />
    <glyph glyph-name="one" unicode="&#x661;" horiz-adv-x="1149" 
d="M476 1200q52 -68 96.5 -153t81 -179.5t64 -196t46.5 -202t29.5 -196.5t11.5 -181l-105 -216q-59 295 -142.5 542t-192.5 447z" />
    <glyph glyph-name="two" unicode="2" horiz-adv-x="1149" 
d="M924 1063q0 -93 -20.5 -166.5t-58.5 -128.5t-91.5 -91t-120.5 -54q47 -182 79 -353t34 -317l-88 -42q-88 264 -196.5 522t-236.5 518q-1 5 6 21t19 38.5t26.5 48t29.5 49t27.5 43.5t20.5 30q39 -50 76 -90.5t72.5 -69.5t68.5 -45t64 -16q52 0 101.5 49.5t96.5 160.5z" />
    <glyph glyph-name="two" unicode="&#x6f2;" horiz-adv-x="1149" 
d="M924 1063q0 -93 -20.5 -166.5t-58.5 -128.5t-91.5 -91t-120.5 -54q47 -182 79 -353t34 -317l-88 -42q-88 264 -196.5 522t-236.5 518q-1 5 6 21t19 38.5t26.5 48t29.5 49t27.5 43.5t20.5 30q39 -50 76 -90.5t72.5 -69.5t68.5 -45t64 -16q52 0 101.5 49.5t96.5 160.5z" />
    <glyph glyph-name="two" unicode="&#x662;" horiz-adv-x="1149" 
d="M924 1063q0 -93 -20.5 -166.5t-58.5 -128.5t-91.5 -91t-120.5 -54q47 -182 79 -353t34 -317l-88 -42q-88 264 -196.5 522t-236.5 518q-1 5 6 21t19 38.5t26.5 48t29.5 49t27.5 43.5t20.5 30q39 -50 76 -90.5t72.5 -69.5t68.5 -45t64 -16q52 0 101.5 49.5t96.5 160.5z" />
    <glyph glyph-name="three" unicode="3" horiz-adv-x="1149" 
d="M892 668q-20 0 -60.5 10t-81.5 22q-48 14 -102 32q-20 -16 -45 -32.5t-51 -32.5t-52.5 -30t-50.5 -26q29 -154 60.5 -312t60.5 -313l-116 -84l-360 1001q0 3 8.5 18.5t21.5 37t29.5 47t32.5 49.5t30 44t22 30q24 -42 47 -78t47 -62.5t50 -41.5t55 -15q33 0 64.5 17
t59.5 46t51.5 69t41.5 87l108 -23q2 -47 9.5 -73t24 -39.5t44 -19t70.5 -11.5q18 38 38.5 81.5t37.5 80.5l93 -31z" />
    <glyph glyph-name="three" unicode="&#x6f3;" horiz-adv-x="1149" 
d="M892 668q-20 0 -60.5 10t-81.5 22q-48 14 -102 32q-20 -16 -45 -32.5t-51 -32.5t-52.5 -30t-50.5 -26q29 -154 60.5 -312t60.5 -313l-116 -84l-360 1001q0 3 8.5 18.5t21.5 37t29.5 47t32.5 49.5t30 44t22 30q24 -42 47 -78t47 -62.5t50 -41.5t55 -15q33 0 64.5 17
t59.5 46t51.5 69t41.5 87l108 -23q2 -47 9.5 -73t24 -39.5t44 -19t70.5 -11.5q18 38 38.5 81.5t37.5 80.5l93 -31z" />
    <glyph glyph-name="three" unicode="&#x663;" horiz-adv-x="1149" 
d="M892 668q-20 0 -60.5 10t-81.5 22q-48 14 -102 32q-20 -16 -45 -32.5t-51 -32.5t-52.5 -30t-50.5 -26q29 -154 60.5 -312t60.5 -313l-116 -84l-360 1001q0 3 8.5 18.5t21.5 37t29.5 47t32.5 49.5t30 44t22 30q24 -42 47 -78t47 -62.5t50 -41.5t55 -15q33 0 64.5 17
t59.5 46t51.5 69t41.5 87l108 -23q2 -47 9.5 -73t24 -39.5t44 -19t70.5 -11.5q18 38 38.5 81.5t37.5 80.5l93 -31z" />
    <glyph glyph-name="four" unicode="4" horiz-adv-x="1149" 
d="M683 956q-29 -5 -62.5 -16.5t-62 -25.5t-47.5 -28.5t-19 -25.5q0 -10 14 -25t37 -33t51.5 -38t56.5 -39.5t53 -37.5t42 -31q-59 -79 -101 -135.5t-70 -96t-44 -65t-22 -41.5q33 -19 77.5 -35t93 -30t98 -27.5t92.5 -26.5l-91 -281q-68 19 -136.5 38.5t-133.5 40.5
t-123.5 44t-104.5 49q-6 5 -0.5 30.5t18.5 63t33.5 83t45 90.5t52 85.5t55.5 68.5q-23 22 -51.5 42t-56 41t-52.5 44t-42 50q0 49 16 103t45 107.5t68 103.5t85.5 91t97.5 70.5t103 41.5z" />
    <glyph glyph-name="four" unicode="&#x6f4;" horiz-adv-x="1149" 
d="M683 956q-29 -5 -62.5 -16.5t-62 -25.5t-47.5 -28.5t-19 -25.5q0 -10 14 -25t37 -33t51.5 -38t56.5 -39.5t53 -37.5t42 -31q-59 -79 -101 -135.5t-70 -96t-44 -65t-22 -41.5q33 -19 77.5 -35t93 -30t98 -27.5t92.5 -26.5l-91 -281q-68 19 -136.5 38.5t-133.5 40.5
t-123.5 44t-104.5 49q-6 5 -0.5 30.5t18.5 63t33.5 83t45 90.5t52 85.5t55.5 68.5q-23 22 -51.5 42t-56 41t-52.5 44t-42 50q0 49 16 103t45 107.5t68 103.5t85.5 91t97.5 70.5t103 41.5z" />
    <glyph glyph-name="four" unicode="&#x664;" horiz-adv-x="1149" 
d="M683 956q-29 -5 -62.5 -16.5t-62 -25.5t-47.5 -28.5t-19 -25.5q0 -10 14 -25t37 -33t51.5 -38t56.5 -39.5t53 -37.5t42 -31q-59 -79 -101 -135.5t-70 -96t-44 -65t-22 -41.5q33 -19 77.5 -35t93 -30t98 -27.5t92.5 -26.5l-91 -281q-68 19 -136.5 38.5t-133.5 40.5
t-123.5 44t-104.5 49q-6 5 -0.5 30.5t18.5 63t33.5 83t45 90.5t52 85.5t55.5 68.5q-23 22 -51.5 42t-56 41t-52.5 44t-42 50q0 49 16 103t45 107.5t68 103.5t85.5 91t97.5 70.5t103 41.5z" />
    <glyph glyph-name="five" unicode="5" horiz-adv-x="1149" 
d="M766 460q-68 135 -134.5 201.5t-132.5 69.5q-17 -17 -34 -45t-30.5 -59t-22.5 -61t-9 -51q0 -37 22 -60.5t56 -36t76.5 -15t82.5 3.5t74 19.5t52 33.5zM495 103q-275 0 -275 277q0 42 14 107t39.5 138t61.5 146.5t78.5 133t91.5 96.5t101 37q40 0 79.5 -25t76.5 -65
t68.5 -90.5t54.5 -100.5t36.5 -95.5t13.5 -76.5q0 -37 -7 -87t-25 -103.5t-49.5 -106t-80.5 -93.5t-117.5 -66.5t-160.5 -25.5z" />
    <glyph glyph-name="five" unicode="&#x6f5;" horiz-adv-x="1149" 
d="M766 460q-68 135 -134.5 201.5t-132.5 69.5q-17 -17 -34 -45t-30.5 -59t-22.5 -61t-9 -51q0 -37 22 -60.5t56 -36t76.5 -15t82.5 3.5t74 19.5t52 33.5zM495 103q-275 0 -275 277q0 42 14 107t39.5 138t61.5 146.5t78.5 133t91.5 96.5t101 37q40 0 79.5 -25t76.5 -65
t68.5 -90.5t54.5 -100.5t36.5 -95.5t13.5 -76.5q0 -37 -7 -87t-25 -103.5t-49.5 -106t-80.5 -93.5t-117.5 -66.5t-160.5 -25.5z" />
    <glyph glyph-name="five" unicode="&#x665;" horiz-adv-x="1149" 
d="M766 460q-68 135 -134.5 201.5t-132.5 69.5q-17 -17 -34 -45t-30.5 -59t-22.5 -61t-9 -51q0 -37 22 -60.5t56 -36t76.5 -15t82.5 3.5t74 19.5t52 33.5zM495 103q-275 0 -275 277q0 42 14 107t39.5 138t61.5 146.5t78.5 133t91.5 96.5t101 37q40 0 79.5 -25t76.5 -65
t68.5 -90.5t54.5 -100.5t36.5 -95.5t13.5 -76.5q0 -37 -7 -87t-25 -103.5t-49.5 -106t-80.5 -93.5t-117.5 -66.5t-160.5 -25.5z" />
    <glyph glyph-name="six" unicode="6" horiz-adv-x="1149" 
d="M875 -89q-68 23 -114 76t-74.5 124.5t-41.5 156t-15 171t4 169.5t17 151q-116 14 -237.5 28.5t-236.5 28.5l57 287l578 -80q-14 -79 -21 -162.5t-6 -164.5t11.5 -157t31.5 -140.5t53.5 -114t78.5 -78.5z" />
    <glyph glyph-name="six" unicode="&#x6f6;" horiz-adv-x="1149" 
d="M875 -89q-68 23 -114 76t-74.5 124.5t-41.5 156t-15 171t4 169.5t17 151q-116 14 -237.5 28.5t-236.5 28.5l57 287l578 -80q-14 -79 -21 -162.5t-6 -164.5t11.5 -157t31.5 -140.5t53.5 -114t78.5 -78.5z" />
    <glyph glyph-name="six" unicode="&#x666;" horiz-adv-x="1149" 
d="M875 -89q-68 23 -114 76t-74.5 124.5t-41.5 156t-15 171t4 169.5t17 151q-116 14 -237.5 28.5t-236.5 28.5l57 287l578 -80q-14 -79 -21 -162.5t-6 -164.5t11.5 -157t31.5 -140.5t53.5 -114t78.5 -78.5z" />
    <glyph glyph-name="seven" unicode="7" horiz-adv-x="1149" 
d="M120 838l118 282l372 -804l398 802l29 -257l-454 -1001z" />
    <glyph glyph-name="seven" unicode="&#x6f7;" horiz-adv-x="1149" 
d="M120 838l118 282l372 -804l398 802l29 -257l-454 -1001z" />
    <glyph glyph-name="seven" unicode="&#x667;" horiz-adv-x="1149" 
d="M120 838l118 282l372 -804l398 802l29 -257l-454 -1001z" />
    <glyph glyph-name="eight" unicode="8" horiz-adv-x="1149" 
d="M1033 185l-119 -281l-372 760l-379 -759l-47 258l453 954z" />
    <glyph glyph-name="eight" unicode="&#x6f8;" horiz-adv-x="1149" 
d="M1033 185l-119 -281l-372 760l-379 -759l-47 258l453 954z" />
    <glyph glyph-name="eight" unicode="&#x668;" horiz-adv-x="1149" 
d="M1033 185l-119 -281l-372 760l-379 -759l-47 258l453 954z" />
    <glyph glyph-name="nine" unicode="9" horiz-adv-x="1149" 
d="M556 1207q33 0 56 -15.5t42.5 -53t39.5 -101t48 -158.5q32 -112 85 -285t127 -391l-97 -364l-220 608q-54 -12 -97 -17t-80 -5q-81 0 -131 22.5t-78 59t-37.5 83.5t-9.5 97q0 35 14.5 87t39 109.5t58.5 115.5t73 104t82 75t85 29zM502 914q-12 0 -27.5 -11t-30.5 -29
t-29 -42t-24 -51q5 -30 25 -42t46.5 -15t54.5 0t49 5q-3 13 -6.5 32.5t-7 41.5t-8 43.5t-11 37.5t-14 25t-17.5 5z" />
    <glyph glyph-name="nine" unicode="&#x6f9;" horiz-adv-x="1149" 
d="M556 1207q33 0 56 -15.5t42.5 -53t39.5 -101t48 -158.5q32 -112 85 -285t127 -391l-97 -364l-220 608q-54 -12 -97 -17t-80 -5q-81 0 -131 22.5t-78 59t-37.5 83.5t-9.5 97q0 35 14.5 87t39 109.5t58.5 115.5t73 104t82 75t85 29zM502 914q-12 0 -27.5 -11t-30.5 -29
t-29 -42t-24 -51q5 -30 25 -42t46.5 -15t54.5 0t49 5q-3 13 -6.5 32.5t-7 41.5t-8 43.5t-11 37.5t-14 25t-17.5 5z" />
    <glyph glyph-name="nine" unicode="&#x669;" horiz-adv-x="1149" 
d="M556 1207q33 0 56 -15.5t42.5 -53t39.5 -101t48 -158.5q32 -112 85 -285t127 -391l-97 -364l-220 608q-54 -12 -97 -17t-80 -5q-81 0 -131 22.5t-78 59t-37.5 83.5t-9.5 97q0 35 14.5 87t39 109.5t58.5 115.5t73 104t82 75t85 29zM502 914q-12 0 -27.5 -11t-30.5 -29
t-29 -42t-24 -51q5 -30 25 -42t46.5 -15t54.5 0t49 5q-3 13 -6.5 32.5t-7 41.5t-8 43.5t-11 37.5t-14 25t-17.5 5z" />
    <glyph glyph-name="colon" unicode=":" horiz-adv-x="538" 
d="M275 348l169 -168l-169 -167l-167 167zM275 746l169 -168l-169 -167l-167 167z" />
    <glyph glyph-name="equal" unicode="=" horiz-adv-x="1041" 
d="M71 352h898v-201h-898v201zM71 743h898v-201h-898v201z" />
    <glyph glyph-name="bracketleft" unicode="[" horiz-adv-x="593" 
d="M112 -207v1640h439v-172h-216v-1297h216v-171h-439z" />
    <glyph glyph-name="bracketright" unicode="]" horiz-adv-x="593" 
d="M481 -207h-438v171h215v1297h-215v172h438v-1640z" />
    <glyph glyph-name="braceleft" unicode="{" horiz-adv-x="693" 
d="M651 -356q-207 -14 -303 54.5t-96 229.5v231q0 140 -26 175t-141 50v158q115 15 141 50t26 175v231q0 161 96 229.5t303 55.5v-160q-121 6 -149.5 -22t-28.5 -155v-232q0 -139 -83 -201q-39 -29 -106 -51q67 -19 106 -49q83 -62 83 -201v-232q0 -127 28.5 -155t149.5 -21
v-160z" />
    <glyph glyph-name="braceright" unicode="}" horiz-adv-x="693" 
d="M43 -356v160q121 -7 149 21t28 155v232q0 139 84 201q38 30 105 49q-67 22 -105 51q-84 62 -84 201v232q0 127 -28 155t-149 22v160q207 13 302.5 -55.5t95.5 -229.5v-231q0 -140 26 -175t141 -50v-158q-115 -15 -141 -50t-26 -175v-231q0 -161 -96 -230
q-95 -68 -302 -54z" />
    <glyph glyph-name="guillemotleft" unicode="&#xab;" horiz-adv-x="880" 
d="M763 -133h-72q-82 97 -164 192.5t-164 192.5q84 97 164.5 189.5t164.5 189.5h64l-217 -378zM461 -133h-68q-82 97 -163 192.5t-164 192.5q84 97 164.5 189.5t165.5 189.5h65l-219 -378z" />
    <glyph glyph-name="periodcentered" unicode="&#xb7;" horiz-adv-x="405" 
d="M326 613q0 -50 -35.5 -85t-85.5 -35q-49 0 -84.5 35.5t-35.5 84.5t34.5 85t83.5 36q51 0 87 -35t36 -86z" />
    <glyph glyph-name="periodcentered" unicode="&#x2219;" horiz-adv-x="405" 
d="M326 613q0 -50 -35.5 -85t-85.5 -35q-49 0 -84.5 35.5t-35.5 84.5t34.5 85t83.5 36q51 0 87 -35t36 -86z" />
    <glyph glyph-name="periodcentered" unicode="&#x2d9;" horiz-adv-x="405" 
d="M326 613q0 -50 -35.5 -85t-85.5 -35q-49 0 -84.5 35.5t-35.5 84.5t34.5 85t83.5 36q51 0 87 -35t36 -86z" />
    <glyph glyph-name="guillemotright" unicode="&#xbb;" horiz-adv-x="880" 
d="M335 253q-54 94 -108 189t-109 189h65q81 -95 163.5 -189.5t165.5 -189.5q-84 -99 -165 -193t-163 -192h-74zM632 253q-54 94 -109.5 189t-109.5 189h65q83 -95 165.5 -189.5t164.5 -189.5q-83 -99 -163 -193t-164 -192h-68z" />
    <glyph glyph-name="multiply" unicode="&#xd7;" horiz-adv-x="1041" 
d="M520 302l-304 -304l-145 144l305 305l-305 304l145 144l304 -304l305 304l144 -144l-304 -304l304 -305l-144 -144z" />
    <glyph glyph-name="divide" unicode="&#xf7;" horiz-adv-x="1041" 
d="M520 233q66 0 112.5 -46t46.5 -112t-46.5 -112t-112.5 -46t-112 46t-46 112t46 112t112 46zM71 550h898v-207h-898v207zM520 976q66 0 112.5 -46t46.5 -112t-46.5 -112t-112.5 -46t-112 46t-46 112t46 112t112 46z" />
    <glyph glyph-name="uni060C" unicode="&#x60c;" horiz-adv-x="418" 
d="M415 -52q0 -33 -28 -65q-36 -41 -94 -41q-66 0 -103 49q-34 45 -34 113q0 168 140 243q19 10 46 11q28 1 28 -11q-4 -6 -30 -29q-84 -74 -84 -177q33 10 61 10q98 0 98 -103z" />
    <glyph glyph-name="uni061B" unicode="&#x61b;" horiz-adv-x="497" 
d="M258 338q-107 12 -149.5 116t27.5 235.5t206 157.5q-191 -266 27 -343zM259 281l169 -168l-169 -167l-167 167z" />
    <glyph glyph-name="uni061F" unicode="&#x61f;" horiz-adv-x="806" 
d="M624 981q-34 45 -78.5 70t-89.5 12q-36 -3 -61.5 -23.5t-38 -50t-9.5 -63t26 -63.5q21 -28 46.5 -59.5t51 -64t49.5 -63t41 -55t26 -41t5 -21.5l-136 -177q-58 72 -104 124.5t-81 92t-60.5 71.5t-43 63.5t-28 66.5t-15.5 82q-8 73 8 142.5t59.5 124.5t117.5 89t181 36
q25 0 60.5 -10.5t70 -27.5t62 -39.5t36.5 -45.5zM474 293l175 -174l-175 -177l-176 177z" />
    <glyph glyph-name="uni0621" unicode="&#x621;" horiz-adv-x="954" 
d="M835 0h-53q-86 0 -167.5 -1t-163.5 -6.5t-166.5 -17t-176.5 -32.5l-50 242l197 53q-32 52 -48 106.5t-16 103.5q0 79 34 146.5t89.5 117t127.5 77.5t148 28q57 0 115 -18.5t115 -59.5l-68 -240q-35 14 -71 24t-68 10q-36 0 -68.5 -14.5t-52.5 -46.5q-15 -29 -15 -57
q0 -23 9.5 -45.5t25.5 -41.5q19 -23 42.5 -38t50 -23t55.5 -11t59 -3q22 0 44 1t43 3q19 2 46.5 2.5t44.5 0.5z" />
    <glyph glyph-name="uni0640" unicode="&#x640;" horiz-adv-x="407" 
d="M449 260v-260h-497v260h497z" />
    <glyph glyph-name="uni064B" unicode="&#x64b;" 
d="M478 1691l-377 -155v114l377 149v-108zM478 1904l-377 -155v114l377 149v-108z" />
    <glyph glyph-name="uni064C" unicode="&#x64c;" 
d="M513 1811q0 -51 -71 -130l47 -14l-50 -86q-68 12 -98 34q-118 -70 -218 -70q-43 0 -87 96q64 0 73 3q21 24 21 50q0 20 -16 20q-17 0 -62 -48l-18 84q49 56 101 56q19 0 37 -9q48 -22 48 -78q0 -42 -15 -65q46 4 70 23q-36 61 -36 86q0 56 75 110q64 48 101 48
q98 0 98 -110zM401 1799q0 23 -20 23q-34 0 -34 -37q0 -35 26 -56q28 18 28 70z" />
    <glyph glyph-name="uni064D" unicode="&#x64d;" 
d="M538 -1089l-377 -154v114l377 148v-108zM538 -896l-377 -155v114l377 149v-108z" />
    <glyph glyph-name="uni064E" unicode="&#x64e;" 
d="M478 1771l-377 -155v114l377 149v-108z" />
    <glyph glyph-name="uni064F" unicode="&#x64f;" 
d="M506 1811q0 -49 -70 -130l46 -14l-49 -86q-71 14 -99 34q-123 -70 -217 -70q-46 0 -86 97q117 3 151 7q63 8 86 29q-35 62 -35 87q0 54 75 108q64 49 100 49q47 0 76 -39q22 -32 22 -72zM394 1799q0 23 -19 23q-36 0 -36 -36q0 -35 27 -56q28 17 28 69z" />
    <glyph glyph-name="uni0650" unicode="&#x650;" 
d="M538 -966l-378 -155v114l378 149v-108z" />
    <glyph glyph-name="uni0651" unicode="&#x651;" 
d="M514 1702q0 -60 -35 -104q-42 -49 -108 -49q-70 0 -96 47q-43 -51 -122 -51q-52 0 -86 43t-34 89q0 34 19 74q25 55 64 55q29 0 29 -31q0 -11 -2.5 -30t-2.5 -29q0 -42 33 -42q38 0 53 31q5 12 19 73q6 31 38 31t35 -34q12 -106 53 -106q38 0 38 45q0 22 -10 56l79 65
q36 -59 36 -133z" />
    <glyph glyph-name="uni0652" unicode="&#x652;" 
d="M436 1699q0 -151 -160 -151q-140 0 -140 116q0 49 36 136q44 104 93 104q85 0 132 -68q39 -56 39 -137zM366 1689q0 85 -101 85q-6 0 -20 -32q-15 -34 -15 -55q0 -31 54 -31q82 0 82 33z" />
    <glyph glyph-name="uni200C" unicode="&#x200c;" horiz-adv-x="37" 
 />
    <glyph glyph-name="uni200D" unicode="&#x200d;" horiz-adv-x="37" 
 />
    <glyph glyph-name="uni200E" unicode="&#x200e;" horiz-adv-x="37" 
d="M245 1150l-108 -111l-28 23l72 72h-144v-1289h-37v1324h176l-67 67l28 25z" />
    <glyph glyph-name="uni200F" unicode="&#x200f;" horiz-adv-x="37" 
d="M37 -155h-37v1289h-143l69 -72l-23 -23l-114 111l114 111l23 -25l-67 -67h178v-1324z" />
    <glyph glyph-name="quoteleft" unicode="&#x2018;" horiz-adv-x="491" 
d="M467 1331q-89 -59 -154 -145q-76 -101 -76 -193q0 -55 32 -98q39 47 90 47q102 0 102 -100q0 -59 -48 -92q-43 -30 -104 -30q-82 0 -133 50.5t-51 132.5q0 141 108 283q97 127 234 200v-55z" />
    </font>
</defs>
</svg>
